<?xml version="1.0" encoding="utf-8"?>
<!-- Generator: Adobe Illustrator 26.2.1, SVG Export Plug-In . SVG Version: 6.00 Build 0)  -->
<svg version="1.1" id="Layer_1" xmlns="http://www.w3.org/2000/svg" xmlns:xlink="http://www.w3.org/1999/xlink" x="0px" y="0px"
	 viewBox="0 0 1024 768" style="enable-background:new 0 0 1024 768;" xml:space="preserve">
<style type="text/css">
	.st0{fill:#E4E4E4;}
	.st1{fill:#0565A1;}
	.st2{fill:#087DB7;}
	.st3{fill:#C1C1C1;}
	.st4{fill:#05557C;}
	.st5{fill:#7F7F7F;}
	.st6{fill:#C0C0C0;}
	.st7{fill:#E5E5E5;}
	.st8{fill:#A0A0A0;}
	.st9{fill:#9F9F9F;}
	.st10{fill-rule:evenodd;clip-rule:evenodd;fill:#4C4C4C;}
	.st11{fill-rule:evenodd;clip-rule:evenodd;fill:#29AAE1;}
	.st12{fill-rule:evenodd;clip-rule:evenodd;fill:#0565A1;}
	.st13{fill:#FFFFFF;}
	.st14{fill:#292468;}
	.st15{fill:#8E8E8E;}
	.st16{fill:#29AAE1;}
</style>
<polygon class="st0" points="424.7,452.5 349.1,528 349.1,92 424.7,143.8 "/>
<polygon class="st1" points="349.1,459 264.5,540.8 264.9,128.7 349.1,74.8 "/>
<polygon class="st2" points="437.6,236.6 424.7,228 424.7,143.8 437.6,139.5 "/>
<polygon class="st3" points="472.1,333.8 460.3,346.7 459.2,262.5 472.1,258.2 "/>
<polygon class="st4" points="424.7,143.8 349.1,92 349.1,74.8 437.6,139.5 "/>
<polygon class="st5" points="459.2,262.5 400.9,228 400.9,210.7 472.1,258.2 "/>
<polygon class="st6" points="400.9,407.4 320,487 320,270.8 400.9,210.7 "/>
<polygon class="st7" points="400.9,228 459.2,262.5 460.3,346.7 400.9,406.8 "/>
<polygon class="st8" points="452.7,297.1 407.4,273.3 407.4,249.6 452.7,273.3 "/>
<polygon class="st9" points="384.1,149 359.9,132.3 359.9,111.8 384.1,128.6 "/>
<polygon class="st9" points="418.2,173.8 394,157.1 394,136.6 418.2,153.4 "/>
<polygon class="st8" points="453.8,338.1 408.5,314.3 408.5,290.6 453.8,314.3 "/>
<polygon class="st8" points="453.8,379.1 408.5,355.4 408.5,331.6 453.8,355.4 "/>
<polygon class="st8" points="453.8,418 408.5,394.2 408.5,370.5 453.8,394.2 "/>
<path class="st10" d="M505.8,221.3"/>
<polygon class="st11" points="639,372.8 691.7,372.8 691.7,472.4 759.5,540.2 683.7,540.2 512,368.6 512,292.8 639,419.7 639,372.8 
	"/>
<polygon class="st12" points="340.8,539.8 512.5,368.1 512.5,292.3 264.5,540.8 340.8,539.8 "/>
<g>
	<g>
		<path class="st13" d="M507.9,528c-25.1,0-45.6-20.4-45.6-45.6c0-25.1,20.4-45.6,45.6-45.6c25.1,0,45.6,20.4,45.6,45.6
			C553.4,507.6,533,528,507.9,528z"/>
	</g>
	<g>
		<path class="st14" d="M507.9,528c-25.1,0-45.6-20.4-45.6-45.6c0-25.1,20.4-45.6,45.6-45.6c25.1,0,45.6,20.4,45.6,45.6
			C553.4,507.6,533,528,507.9,528z M507.9,441.8c-22.4,0-40.7,18.2-40.7,40.7c0,22.4,18.2,40.7,40.7,40.7
			c22.4,0,40.7-18.2,40.7-40.7C548.5,460.1,530.3,441.8,507.9,441.8z"/>
	</g>
	<path class="st14" d="M536.9,465c-1.8,4.5-6.2,7.7-11.4,7.7c-6.8,0-12.2-5.5-12.2-12.2c0-4.4,2.3-8.2,5.8-10.4
		c-3.4-1.2-7.1-1.9-10.9-1.9c-18.3,0-33.1,14.8-33.1,33.1c0,18.3,14.8,33.1,33.1,33.1c18.3,0,33.1-14.8,33.1-33.1
		C541.2,475.3,539.6,469.8,536.9,465z"/>
	<path class="st13" d="M519.6,482.2c0,2.3-1.9,4.2-4.2,4.2c-2.3,0-4.2-1.9-4.2-4.2c0-2.3,1.9-4.2,4.2-4.2
		C517.8,478.1,519.6,479.9,519.6,482.2z"/>
</g>
<rect x="638.5" y="331.8" class="st12" width="53" height="23.7"/>
<polygon class="st12" points="461.4,541 434.6,541 377.2,474.1 404,474.1 "/>
<path class="st15" d="M359.9,171.2"/>
<path class="st9" d="M359.9,171.5c0,0,19.4,28.8,58.3,35.1v-16.2c0,0-32.4,1.3-58.3-39.4V171.5z"/>
<g>
	<path class="st16" d="M264.5,692.1V690c6.3-0.7,7-1,7-7.4v-30.1c0-6.5-0.6-6.8-7-7.5v-2.1h20.7v2.1c-6.4,0.7-7,1-7,7.5v30.1
		c0,6.5,0.6,6.8,7,7.4v2.1H264.5z"/>
	<path class="st16" d="M346.5,644.9c-5,0.5-6.6,1.3-6.8,4.8c-0.1,2.4-0.2,5.6-0.2,12.7v30.4h-2.9l-33.1-39.7v19
		c0,6.8,0.2,10.2,0.4,12.4c0.2,3.9,2.1,5,7.7,5.5v2.1h-18.8V690c4.8-0.4,6.7-1.5,7-5.2c0.2-2.4,0.4-5.8,0.4-12.8v-19.4
		c0-2.1-0.2-3.3-1.5-5c-1.5-1.9-3.1-2.4-6.9-2.7v-2.1h11.6L336,681v-18.6c0-7.1-0.2-10.3-0.4-12.6c-0.2-3.4-2-4.5-8.2-4.9v-2.1h19.1
		V644.9z"/>
	<path class="st16" d="M378.5,654.3c-1.3-5-3.5-9.9-10.8-9.9c-6,0-8.1,4.3-8.1,8.3c0,5.2,3.4,7.9,9.8,11.2
		c9.3,4.7,13.3,8.2,13.3,15.4c0,8-7,14-17,14c-4.6,0-8.7-1.3-11.8-2.5c-0.6-2.1-1.5-7.3-2.1-11.4l2.4-0.6c1.5,5.1,5,11.7,13,11.7
		c5.6,0,9-3.8,9-8.7c0-5.8-3.2-8.2-10-11.8c-8.1-4.3-12.7-8-12.7-15c0-6.8,5.7-13.1,15.9-13.1c4.3,0,8.6,1.1,10.2,1.4
		c0.3,2.7,0.6,5.8,1.2,10.7L378.5,654.3z"/>
	<path class="st16" d="M409.4,642.8c5.5,0,9.9,1,13.1,3.3c3,2.2,5.1,5.8,5.1,10.8c0,11.1-9.7,15.6-17,15.6c-0.9,0-1.6-0.1-2.1-0.2
		l-5.3-1.4v11.8c0,6.4,0.5,6.5,7.7,7.3v2.1h-21.4V690c6.7-0.7,7-1.1,7-7.4v-30.1c0-6.8-0.9-6.9-7-7.5v-2.1H409.4z M403.1,668.2
		c0.9,0.5,3,1,5.6,1c5.2,0,11.6-2.6,11.6-12.1c0-8.3-5.6-11.7-12.1-11.7c-2.2,0-3.9,0.4-4.3,0.9c-0.6,0.5-0.9,1.4-0.9,3.5V668.2z"/>
	<path class="st16" d="M474.2,680c-0.5,2-2.6,9.8-3.3,12.1h-37.6V690c7.2-0.5,7.7-1.2,7.7-7.4v-30c0-6.8-0.9-7.1-6.7-7.7v-2.1H458
		c7.3,0,10.3-0.1,11.2-0.2c0.1,1.9,0.4,7.6,0.7,11.6l-2.3,0.4c-0.7-2.6-1.5-4.2-2.3-5.8c-1.2-2.5-3-3-7.7-3h-7.3
		c-2.4,0-2.6,0.2-2.6,2.4V665h8.6c5.8,0,6.2-1.1,7.1-6.3h2.4v15.6h-2.4c-1-5.5-1.6-6.2-7.2-6.2h-8.5v15.1c0,5.3,1.7,5.8,5.6,5.8h7.2
		c4.7,0,5.5-0.7,7.2-2.7c1.5-1.6,3.1-4.7,4.2-7L474.2,680z"/>
	<path class="st16" d="M526,680c-1.1,3.6-3.1,9.1-4.3,11.5c-2.2,0.5-8.3,1.8-14.2,1.8c-18.5,0-27.9-12.1-27.9-25.4
		c0-15.5,12-26.2,29.3-26.2c6.7,0,12.1,1.4,14.6,1.7c0.3,3.4,0.9,8,1.5,11.8l-2.4,0.5c-1.5-5.1-3.4-8.2-7.4-9.8
		c-2-0.9-5.2-1.4-8.1-1.4c-12.8,0-19.5,9.3-19.5,21.8c0,14.6,7.7,24.1,20.3,24.1c7.9,0,11.8-3.6,15.7-11.2L526,680z"/>
	<path class="st16" d="M574.2,654.7c-0.7-2.4-1.6-4.9-2.5-6.3c-1.2-2-2-2.6-6.3-2.6h-7.7v37c0,5.9,0.6,6.8,8,7.2v2.1h-22.5V690
		c7.2-0.5,7.8-1.2,7.8-7.2v-37h-7c-4.3,0-5.5,0.5-6.8,2.7c-0.9,1.5-1.5,3.3-2.6,6.1h-2.3c0.5-4.6,0.9-9.4,1.2-13.7h1.8
		c1.2,1.8,2,1.7,4.2,1.7h30.6c2.2,0,2.8-0.3,3.9-1.7h1.9c0,3.6,0.3,9,0.7,13.4L574.2,654.7z"/>
	<path class="st16" d="M582.9,692.1V690c6.3-0.7,7-1,7-7.4v-30.1c0-6.5-0.6-6.8-7-7.5v-2.1h20.7v2.1c-6.4,0.7-7,1-7,7.5v30.1
		c0,6.5,0.6,6.8,7,7.4v2.1H582.9z"/>
	<path class="st16" d="M637.1,641.7c13.2,0,25.1,9.9,25.1,25c0,16.3-11.3,26.5-25.5,26.5c-14.9,0-25.7-11.1-25.7-25.4
		C611,654.3,620.8,641.7,637.1,641.7z M635.6,644.5c-8.7,0-16.6,7.1-16.6,21.3c0,14.1,7.9,24.5,18.9,24.5c9.4,0,16.4-6.8,16.4-21.5
		C654.3,652.9,645.7,644.5,635.6,644.5z"/>
	<path class="st16" d="M723.2,644.9c-5,0.5-6.6,1.3-6.8,4.8c-0.1,2.4-0.2,5.6-0.2,12.7v30.4h-2.9l-33.1-39.7v19
		c0,6.8,0.2,10.2,0.4,12.4c0.2,3.9,2.1,5,7.7,5.5v2.1h-18.8V690c4.8-0.4,6.7-1.5,7-5.2c0.2-2.4,0.4-5.8,0.4-12.8v-19.4
		c0-2.1-0.2-3.3-1.5-5c-1.5-1.9-3.1-2.4-6.9-2.7v-2.1h11.6l32.8,38.2v-18.6c0-7.1-0.2-10.3-0.4-12.6c-0.2-3.4-2-4.5-8.2-4.9v-2.1
		h19.1V644.9z"/>
	<path class="st16" d="M755.2,654.3c-1.3-5-3.5-9.9-10.8-9.9c-6,0-8.1,4.3-8.1,8.3c0,5.2,3.4,7.9,9.8,11.2
		c9.3,4.7,13.3,8.2,13.3,15.4c0,8-7,14-17,14c-4.6,0-8.7-1.3-11.8-2.5c-0.6-2.1-1.5-7.3-2.1-11.4l2.4-0.6c1.5,5.1,5,11.7,13,11.7
		c5.6,0,9-3.8,9-8.7c0-5.8-3.2-8.2-10-11.8c-8.1-4.3-12.7-8-12.7-15c0-6.8,5.7-13.1,15.9-13.1c4.3,0,8.6,1.1,10.2,1.4
		c0.3,2.7,0.6,5.8,1.2,10.7L755.2,654.3z"/>
</g>
<g>
	<path class="st1" d="M283.9,584.7h0.4c3-3.2,15.6-16.1,18.2-19c2.4-2.8,4.3-5,4.3-6.5c0-0.9-0.3-1.6-1.2-1.7
		c-0.8-0.2-1.1-0.3-1.1-0.9c0-0.6,0.4-0.8,1.4-0.8c1.8,0,6.6,0.3,8.9,0.3c2.7,0,7.5-0.3,10.2-0.3c0.9,0,1.5,0.2,1.5,0.8
		c0,0.6-0.4,0.8-1.3,0.8c-1.2,0-3.4,0.3-5,0.9c-2.7,1-5.6,2.8-9.4,6.5c-2.7,2.6-15.8,15.5-18.8,18.6c3.1,4.1,20.2,22.3,23.5,25.5
		c3.8,3.6,7.7,7.5,12.4,9.3c2.6,1,4.3,1.3,5.4,1.3c0.6,0,1.1,0.2,1.1,0.7c0,0.6-0.4,0.9-2.1,0.9h-7.6c-2.6,0-4.2,0-6-0.2
		c-4.7-0.4-7-2.3-10.8-5.6c-3.8-3.4-20.9-23.3-22.8-25.8l-1-1.3h-0.4v7.9c0,7.9,0,14.8,0.3,18.5c0.2,2.4,1,4.3,3.1,4.7
		c1.2,0.2,3.1,0.3,4.3,0.3c0.7,0,1.1,0.3,1.1,0.7c0,0.6-0.7,0.9-1.7,0.9c-4.9,0-10.3-0.3-12.5-0.3c-2,0-7.5,0.3-10.9,0.3
		c-1.1,0-1.7-0.3-1.7-0.9c0-0.4,0.3-0.7,1.4-0.7c1.3,0,2.3-0.2,3.1-0.3c1.7-0.3,2.2-2.2,2.5-4.7c0.4-3.6,0.4-10.4,0.4-18.4v-15.2
		c0-13.1,0-15.5-0.2-18.3c-0.2-2.9-0.9-4.3-3.7-4.9c-0.7-0.2-2.2-0.3-3.4-0.3c-1,0-1.5-0.2-1.5-0.8c0-0.6,0.6-0.8,1.9-0.8
		c4.6,0,10.1,0.3,12.2,0.3s7.6-0.3,10.5-0.3c1.2,0,1.8,0.2,1.8,0.8c0,0.6-0.5,0.8-1.2,0.8c-0.9,0-1.4,0.1-2.4,0.3
		c-2.3,0.4-3,1.9-3.2,4.9c-0.2,2.8-0.2,5.2-0.2,18.3V584.7z"/>
	<path class="st1" d="M353,580.9c0-13.1,0-15.5-0.2-18.3c-0.2-2.9-0.9-4.3-3.7-4.9c-0.7-0.2-2.2-0.3-3.4-0.3c-1,0-1.5-0.2-1.5-0.8
		c0-0.6,0.6-0.8,1.9-0.8c2.3,0,4.9,0.1,7,0.1c2.3,0.1,4.3,0.2,5.5,0.2c2.8,0,20.1,0,21.7-0.1c1.7-0.2,3-0.3,3.7-0.5
		c0.4-0.1,1-0.3,1.4-0.3s0.5,0.3,0.5,0.8c0,0.6-0.4,1.6-0.7,5.6c-0.1,0.9-0.3,4.7-0.4,5.7c-0.1,0.4-0.3,0.9-0.9,0.9
		c-0.6,0-0.8-0.4-0.8-1.2c0-0.6-0.1-2.1-0.5-3.1c-0.6-1.6-1.5-2.6-5.8-3.1c-1.5-0.2-10.6-0.3-12.3-0.3c-0.4,0-0.6,0.3-0.6,0.9v21.8
		c0,0.6,0.1,0.9,0.6,0.9c1.9,0,11.9,0,13.9-0.2c2.1-0.2,3.4-0.4,4.2-1.3c0.6-0.7,1-1.1,1.4-1.1c0.3,0,0.6,0.2,0.6,0.7
		c0,0.5-0.3,1.9-0.7,6.3c-0.1,1.7-0.3,5.2-0.3,5.8c0,0.7,0,1.6-0.8,1.6c-0.6,0-0.8-0.3-0.8-0.8c-0.1-0.9-0.1-2-0.3-3.1
		c-0.4-1.7-1.7-3-4.9-3.4c-1.7-0.2-10.2-0.3-12.3-0.3c-0.4,0-0.5,0.3-0.5,0.9v6.8c0,2.9-0.1,10.9,0,13.4c0.2,6,1.6,7.2,10.4,7.2
		c2.3,0,5.9,0,8.2-1c2.3-1,3.3-2.8,3.9-6.4c0.2-0.9,0.3-1.3,1-1.3c0.7,0,0.7,0.7,0.7,1.6c0,2-0.7,7.9-1.1,9.6
		c-0.6,2.2-1.4,2.2-4.7,2.2c-6.5,0-11.3-0.2-15-0.3c-3.7-0.2-6.4-0.3-9-0.3c-1,0-2.9,0-5,0.1c-2,0-4.3,0.2-6,0.2
		c-1.1,0-1.7-0.3-1.7-0.9c0-0.4,0.3-0.7,1.4-0.7c1.3,0,2.3-0.2,3.1-0.3c1.7-0.3,2.2-2.2,2.5-4.7c0.4-3.6,0.4-10.4,0.4-18.4V580.9z"
		/>
	<path class="st1" d="M420.9,580.9c0-13.1,0-15.5-0.2-18.3c-0.2-2.9-0.9-4.3-3.7-4.9c-0.7-0.2-2.2-0.3-3.4-0.3c-1,0-1.5-0.2-1.5-0.8
		c0-0.6,0.6-0.8,1.9-0.8c2.3,0,4.9,0.1,7,0.1c2.3,0.1,4.3,0.2,5.5,0.2c2.8,0,20.1,0,21.7-0.1c1.7-0.2,3-0.3,3.7-0.5
		c0.4-0.1,1-0.3,1.4-0.3c0.4,0,0.5,0.3,0.5,0.8c0,0.6-0.4,1.6-0.7,5.6c-0.1,0.9-0.3,4.7-0.4,5.7c-0.1,0.4-0.3,0.9-0.9,0.9
		c-0.6,0-0.8-0.4-0.8-1.2c0-0.6-0.1-2.1-0.5-3.1c-0.6-1.6-1.5-2.6-5.8-3.1c-1.5-0.2-10.6-0.3-12.3-0.3c-0.4,0-0.6,0.3-0.6,0.9v21.8
		c0,0.6,0.1,0.9,0.6,0.9c1.9,0,11.9,0,13.9-0.2c2.1-0.2,3.4-0.4,4.2-1.3c0.6-0.7,1-1.1,1.4-1.1c0.3,0,0.6,0.2,0.6,0.7
		c0,0.5-0.3,1.9-0.7,6.3c-0.1,1.7-0.3,5.2-0.3,5.8c0,0.7,0,1.6-0.8,1.6c-0.6,0-0.8-0.3-0.8-0.8c-0.1-0.9-0.1-2-0.3-3.1
		c-0.4-1.7-1.7-3-4.9-3.4c-1.7-0.2-10.2-0.3-12.3-0.3c-0.4,0-0.5,0.3-0.5,0.9v6.8c0,2.9-0.1,10.9,0,13.4c0.2,6,1.6,7.2,10.4,7.2
		c2.3,0,5.9,0,8.2-1c2.3-1,3.3-2.8,3.9-6.4c0.2-0.9,0.3-1.3,1-1.3c0.7,0,0.7,0.7,0.7,1.6c0,2-0.7,7.9-1.1,9.6
		c-0.6,2.2-1.4,2.2-4.7,2.2c-6.5,0-11.3-0.2-15-0.3c-3.7-0.2-6.4-0.3-9-0.3c-1,0-2.9,0-5,0.1c-2,0-4.3,0.2-6,0.2
		c-1.1,0-1.7-0.3-1.7-0.9c0-0.4,0.3-0.7,1.4-0.7c1.3,0,2.3-0.2,3.1-0.3c1.7-0.3,2.2-2.2,2.5-4.7c0.4-3.6,0.4-10.4,0.4-18.4V580.9z"
		/>
	<path class="st1" d="M493.7,609.3c0.2,6.7,1.3,9,3,9.6c1.5,0.5,3.1,0.6,4.5,0.6c1,0,1.5,0.2,1.5,0.7c0,0.7-0.8,0.9-2,0.9
		c-5.6,0-9.1-0.3-10.8-0.3c-0.8,0-4.9,0.3-9.4,0.3c-1.1,0-1.9-0.1-1.9-0.9c0-0.5,0.5-0.7,1.4-0.7c1.1,0,2.7-0.1,3.9-0.4
		c2.3-0.7,2.6-3.2,2.7-10.7l0.8-51.1c0-1.7,0.3-2.9,1.1-2.9c1,0,1.7,1.1,3.2,2.7c1,1.1,14.2,15.2,26.9,27.7
		c5.9,5.9,17.6,18.3,19.1,19.7h0.4l-0.9-38.8c-0.1-5.3-0.9-6.9-3-7.8c-1.3-0.5-3.4-0.5-4.6-0.5c-1,0-1.4-0.3-1.4-0.8
		c0-0.7,1-0.8,2.3-0.8c4.5,0,8.7,0.3,10.5,0.3c1,0,4.3-0.3,8.5-0.3c1.1,0,2,0.1,2,0.8c0,0.5-0.5,0.8-1.6,0.8c-0.9,0-1.6,0-2.6,0.3
		c-2.4,0.7-3.1,2.5-3.2,7.3l-1,54.5c0,1.9-0.3,2.7-1.1,2.7c-1,0-2-0.9-3-1.9c-5.5-5.2-16.6-16.5-25.6-25.4
		c-9.5-9.3-19.1-20.1-20.7-21.7h-0.3L493.7,609.3z"/>
	<path class="st1" d="M584.2,580.9c0-13.1,0-15.5-0.2-18.3c-0.2-2.9-0.9-4.3-3.7-4.9c-0.7-0.2-2.2-0.3-3.4-0.3c-1,0-1.5-0.2-1.5-0.8
		c0-0.6,0.6-0.8,1.9-0.8c2.3,0,4.9,0.1,7,0.1c2.3,0.1,4.3,0.2,5.5,0.2c2.8,0,20.1,0,21.7-0.1c1.7-0.2,3-0.3,3.7-0.5
		c0.4-0.1,1-0.3,1.4-0.3c0.4,0,0.5,0.3,0.5,0.8c0,0.6-0.4,1.6-0.7,5.6c-0.1,0.9-0.3,4.7-0.4,5.7c-0.1,0.4-0.3,0.9-0.9,0.9
		c-0.6,0-0.8-0.4-0.8-1.2c0-0.6-0.1-2.1-0.5-3.1c-0.6-1.6-1.5-2.6-5.8-3.1c-1.5-0.2-10.6-0.3-12.3-0.3c-0.4,0-0.6,0.3-0.6,0.9v21.8
		c0,0.6,0.1,0.9,0.6,0.9c1.9,0,11.9,0,13.9-0.2c2.1-0.2,3.4-0.4,4.2-1.3c0.6-0.7,1-1.1,1.4-1.1c0.3,0,0.6,0.2,0.6,0.7
		c0,0.5-0.3,1.9-0.7,6.3c-0.1,1.7-0.3,5.2-0.3,5.8c0,0.7,0,1.6-0.8,1.6c-0.6,0-0.8-0.3-0.8-0.8c-0.1-0.9-0.1-2-0.3-3.1
		c-0.4-1.7-1.7-3-4.9-3.4c-1.7-0.2-10.2-0.3-12.3-0.3c-0.4,0-0.5,0.3-0.5,0.9v6.8c0,2.9-0.1,10.9,0,13.4c0.2,6,1.6,7.2,10.4,7.2
		c2.3,0,5.9,0,8.2-1c2.3-1,3.3-2.8,3.9-6.4c0.2-0.9,0.3-1.3,1-1.3c0.7,0,0.7,0.7,0.7,1.6c0,2-0.7,7.9-1.1,9.6
		c-0.6,2.2-1.4,2.2-4.7,2.2c-6.5,0-11.3-0.2-15-0.3c-3.7-0.2-6.4-0.3-9-0.3c-1,0-2.9,0-5,0.1c-2,0-4.3,0.2-6,0.2
		c-1.1,0-1.7-0.3-1.7-0.9c0-0.4,0.3-0.7,1.4-0.7c1.3,0,2.3-0.2,3.1-0.3c1.7-0.3,2.2-2.2,2.5-4.7c0.4-3.6,0.4-10.4,0.4-18.4V580.9z"
		/>
	<path class="st1" d="M662.9,598.7c0-4.7-0.9-6.6-2-9.1c-0.6-1.4-12.2-20.4-15.3-24.9c-2.2-3.2-4.3-5.4-6-6.3
		c-1.1-0.6-2.6-1.1-3.6-1.1c-0.7,0-1.3-0.2-1.3-0.8c0-0.5,0.6-0.8,1.7-0.8c1.6,0,8.1,0.3,10.9,0.3c1.8,0,5.4-0.3,9.3-0.3
		c0.9,0,1.3,0.3,1.3,0.8c0,0.5-0.6,0.6-1.9,0.9c-0.8,0.2-1.2,0.9-1.2,1.6c0,0.7,0.4,1.7,1,2.9c1.2,2.6,13.4,23.4,14.8,25.8
		c0.9-2.1,11.8-21.1,13-23.7c0.9-1.9,1.2-3.4,1.2-4.5c0-0.9-0.3-1.8-1.8-2.2c-0.8-0.2-1.6-0.3-1.6-0.9c0-0.6,0.4-0.8,1.5-0.8
		c2.9,0,5.6,0.3,8.2,0.3c1.9,0,7.6-0.3,9.3-0.3c1,0,1.6,0.2,1.6,0.7c0,0.6-0.7,0.9-1.7,0.9c-0.9,0-2.5,0.3-3.8,1
		c-1.8,0.9-2.8,1.9-4.7,4.2c-2.9,3.5-15,23.7-16.6,27.4c-1.3,3.1-1.3,5.8-1.3,8.6v7.1c0,1.4,0,5,0.3,8.6c0.2,2.5,1,4.4,3.6,4.7
		c1.2,0.2,3.1,0.3,4.3,0.3c1,0,1.4,0.3,1.4,0.7c0,0.6-0.7,0.9-1.8,0.9c-5.5,0-10.9-0.3-13.3-0.3c-2.2,0-7.6,0.3-10.9,0.3
		c-1.2,0-1.9-0.2-1.9-0.9c0-0.4,0.4-0.7,1.4-0.7c1.2,0,2.3-0.2,3-0.3c1.7-0.3,2.5-2.2,2.7-4.7c0.3-3.6,0.3-7.3,0.3-8.6V598.7z"/>
	<path class="st1" d="M724.4,580.9c0-13.1,0-15.5-0.2-18.3c-0.2-2.9-0.9-4.3-3.7-4.9c-0.7-0.2-2.2-0.3-3.4-0.3c-1,0-1.5-0.2-1.5-0.8
		c0-0.6,0.6-0.8,1.9-0.8c2.3,0,4.9,0.1,7,0.1c2.3,0.1,4.3,0.2,5.5,0.2c2.8,0,20.1,0,21.7-0.1c1.7-0.2,3-0.3,3.7-0.5
		c0.4-0.1,1-0.3,1.4-0.3c0.4,0,0.5,0.3,0.5,0.8c0,0.6-0.4,1.6-0.7,5.6c-0.1,0.9-0.3,4.7-0.4,5.7c-0.1,0.4-0.3,0.9-0.9,0.9
		c-0.6,0-0.8-0.4-0.8-1.2c0-0.6-0.1-2.1-0.5-3.1c-0.6-1.6-1.5-2.6-5.8-3.1c-1.5-0.2-10.6-0.3-12.3-0.3c-0.4,0-0.6,0.3-0.6,0.9v21.8
		c0,0.6,0.1,0.9,0.6,0.9c1.9,0,11.9,0,13.9-0.2c2.1-0.2,3.4-0.4,4.2-1.3c0.6-0.7,1-1.1,1.4-1.1c0.3,0,0.6,0.2,0.6,0.7
		c0,0.5-0.3,1.9-0.7,6.3c-0.1,1.7-0.3,5.2-0.3,5.8c0,0.7,0,1.6-0.8,1.6c-0.6,0-0.8-0.3-0.8-0.8c-0.1-0.9-0.1-2-0.3-3.1
		c-0.4-1.7-1.7-3-4.9-3.4c-1.7-0.2-10.2-0.3-12.3-0.3c-0.4,0-0.5,0.3-0.5,0.9v6.8c0,2.9-0.1,10.9,0,13.4c0.2,6,1.6,7.2,10.4,7.2
		c2.3,0,5.9,0,8.2-1c2.3-1,3.3-2.8,3.9-6.4c0.2-0.9,0.3-1.3,1-1.3c0.7,0,0.7,0.7,0.7,1.6c0,2-0.7,7.9-1.1,9.6
		c-0.6,2.2-1.4,2.2-4.7,2.2c-6.5,0-11.3-0.2-15-0.3c-3.7-0.2-6.4-0.3-9-0.3c-1,0-2.9,0-5,0.1c-2,0-4.3,0.2-6,0.2
		c-1.1,0-1.7-0.3-1.7-0.9c0-0.4,0.3-0.7,1.4-0.7c1.3,0,2.3-0.2,3.1-0.3c1.7-0.3,2.2-2.2,2.5-4.7c0.4-3.6,0.4-10.4,0.4-18.4V580.9z"
		/>
</g>
</svg>
