<?xml version="1.0" encoding="UTF-8" standalone="no"?>
<!DOCTYPE svg PUBLIC "-//W3C//DTD SVG 1.1//EN" "http://www.w3.org/Graphics/SVG/1.1/DTD/svg11.dtd">
<svg width="100%" height="100%" viewBox="0 0 102 34" version="1.1" xmlns="http://www.w3.org/2000/svg" xmlns:xlink="http://www.w3.org/1999/xlink" xml:space="preserve" xmlns:serif="http://www.serif.com/" style="fill-rule:evenodd;clip-rule:evenodd;stroke-linejoin:round;stroke-miterlimit:2;">
    <path d="M94.7,10.6L89.1,9.3L88.1,8.9L62.4,9.1L62.4,21.5L94.7,21.6L94.7,10.6Z" style="fill:white;fill-rule:nonzero;"/>
    <path d="M84.2,20.4C84.526,19.537 84.414,18.566 83.9,17.8C83.374,17.169 82.618,16.773 81.8,16.7L64.4,16.5C64.3,16.5 64.2,16.4 64.1,16.4C64.053,16.365 64.025,16.309 64.025,16.25C64.025,16.191 64.053,16.135 64.1,16.1C64.2,15.9 64.3,15.8 64.5,15.8L82,15.6C84.259,15.349 86.214,13.893 87.1,11.8L88.1,9.2C88.1,9.1 88.2,9 88.1,8.9C86.936,3.716 82.294,-0 76.98,-0C72.123,-0 67.775,3.105 66.2,7.7C65.155,6.954 63.88,6.6 62.6,6.7C60.189,6.969 58.269,8.889 58,11.3C57.933,11.901 57.967,12.51 58.1,13.1C54.172,13.209 50.999,16.47 51,20.4C50.984,20.769 51.017,21.14 51.1,21.5C51.109,21.661 51.239,21.791 51.4,21.8L83.5,21.8C83.7,21.8 83.9,21.7 83.9,21.5L84.2,20.4Z" style="fill:rgb(244,129,32);fill-rule:nonzero;"/>
    <path d="M89.7,9.2L89.2,9.2C89.1,9.2 89,9.3 88.9,9.4L88.2,11.8C87.874,12.663 87.986,13.634 88.5,14.4C89.026,15.031 89.782,15.427 90.6,15.5L94.3,15.7C94.4,15.7 94.5,15.8 94.6,15.8C94.647,15.835 94.675,15.891 94.675,15.95C94.675,16.009 94.647,16.065 94.6,16.1C94.5,16.3 94.4,16.4 94.2,16.4L90.4,16.6C88.141,16.851 86.186,18.307 85.3,20.4L85.1,21.3C85,21.4 85.1,21.6 85.3,21.6L98.5,21.6C98.512,21.602 98.525,21.603 98.537,21.603C98.683,21.603 98.803,21.483 98.803,21.337C98.803,21.325 98.802,21.312 98.8,21.3C99.038,20.453 99.172,19.58 99.2,18.7C99.167,13.501 94.899,9.233 89.7,9.2" style="fill:rgb(250,173,63);fill-rule:nonzero;"/>
    <path d="M100.5,27.2C100.006,27.2 99.6,26.794 99.6,26.3C99.6,25.806 100.006,25.4 100.5,25.4C100.994,25.4 101.4,25.806 101.4,26.3L101.4,26.304C101.4,26.795 100.995,27.2 100.504,27.2L100.5,27.2M100.5,25.6C100.116,25.6 99.8,25.916 99.8,26.3C99.8,26.684 100.116,27 100.5,27C100.884,27 101.2,26.684 101.2,26.3L101.2,26.283C101.2,25.908 100.892,25.6 100.517,25.6L100.5,25.6M100.9,26.8L100.7,26.8L100.5,26.5L100.3,26.5L100.3,26.8L100.1,26.8L100.1,25.9L100.6,25.9C100.612,25.898 100.625,25.897 100.637,25.897C100.783,25.897 100.903,26.017 100.903,26.163C100.903,26.175 100.902,26.188 100.9,26.2C100.9,26.3 100.8,26.4 100.7,26.5L100.9,26.8ZM100.6,26.3C100.7,26.3 100.7,26.3 100.7,26.2L100.7,26.198C100.7,26.144 100.656,26.1 100.602,26.1L100.3,26.1L100.3,26.4L100.6,26.4L100.6,26.3ZM10.9,25.4L13.1,25.4L13.1,31.4L16.9,31.4L16.9,33.3L10.9,33.3L10.9,25.4ZM19.2,29.3C19.2,27.048 21.053,25.195 23.305,25.195C23.37,25.195 23.435,25.197 23.5,25.2C23.56,25.197 23.621,25.196 23.681,25.196C25.886,25.196 27.701,27.011 27.701,29.216C27.701,29.244 27.701,29.272 27.7,29.3C27.7,31.552 25.847,33.405 23.595,33.405C23.53,33.405 23.465,33.403 23.4,33.4C23.36,33.401 23.319,33.402 23.279,33.402C21.041,33.402 19.2,31.561 19.2,29.323L19.2,29.3M25.5,29.3C25.503,29.252 25.505,29.203 25.505,29.155C25.505,28.046 24.608,27.127 23.5,27.1C22.387,27.154 21.5,28.085 21.5,29.2C21.5,30.315 22.387,31.246 23.5,31.3C24.7,31.5 25.5,30.5 25.5,29.3M30.4,29.8L30.4,25.4L32.6,25.4L32.6,29.8C32.6,30.9 33.2,31.5 34.1,31.5C34.139,31.503 34.177,31.505 34.216,31.505C34.984,31.505 35.615,30.873 35.615,30.106C35.615,30.037 35.61,29.968 35.6,29.9L35.6,25.4L37.8,25.4L37.8,29.8C37.8,32.4 36.3,33.5 34.1,33.5C31.8,33.4 30.4,32.3 30.4,29.8M41.1,25.4L44.2,25.4C47,25.4 48.7,27 48.7,29.3C48.7,31.6 47,33.3 44.2,33.3L41.2,33.3L41.2,25.4L41.1,25.4ZM44.2,31.3C44.263,31.306 44.327,31.309 44.391,31.309C45.493,31.309 46.4,30.402 46.4,29.3C46.4,28.198 45.493,27.291 44.391,27.291C44.327,27.291 44.263,27.294 44.2,27.3L43.3,27.3L43.3,31.3L44.2,31.3ZM51.8,25.4L58.1,25.4L58.1,27.3L54,27.3L54,28.6L57.7,28.6L57.7,30.4L54,30.4L54,33.3L51.8,33.3L51.8,25.4ZM61.2,25.4L63.4,25.4L63.4,31.4L67.2,31.4L67.2,33.3L61.2,33.3L61.2,25.4ZM72.9,25.3L75.1,25.3L78.5,33.3L76.1,33.3L75.5,31.9L72.4,31.9L71.8,33.3L69.5,33.3L72.9,25.3ZM74.9,30.2L74,28L73.1,30.2L74.9,30.2ZM81.3,25.4L85,25.4C85.954,25.323 86.898,25.649 87.6,26.3C88.05,26.785 88.3,27.423 88.3,28.084C88.3,29.136 87.668,30.09 86.7,30.5L88.6,33.3L86.1,33.3L84.5,30.9L83.5,30.9L83.5,33.3L81.3,33.3L81.3,25.4ZM84.9,29.2C85.6,29.2 86.1,28.8 86.1,28.3C86.1,27.7 85.6,27.4 84.9,27.4L83.5,27.4L83.5,29.3L84.9,29.3L84.9,29.2ZM91.4,25.4L97.8,25.4L97.8,27.2L93.6,27.2L93.6,28.4L97.4,28.4L97.4,30.2L93.6,30.2L93.6,31.4L97.9,31.4L97.9,33.3L91.4,33.3L91.4,25.4ZM6.1,30.3C5.792,31.021 5.084,31.493 4.3,31.5C3.187,31.446 2.3,30.515 2.3,29.4C2.3,28.285 3.187,27.354 4.3,27.3C5.134,27.316 5.883,27.828 6.2,28.6L8.5,28.6C8.095,26.63 6.31,25.227 4.3,25.3C4.255,25.299 4.21,25.298 4.165,25.298C1.903,25.298 0.034,27.139 0,29.4L-0,29.423C-0,31.661 1.841,33.502 4.079,33.502C4.119,33.502 4.16,33.501 4.2,33.5C6.159,33.513 7.893,32.192 8.4,30.3L6.1,30.3Z" style="fill:rgb(153,153,153);fill-rule:nonzero;"/>
</svg>
