<?xml version="1.0" encoding="UTF-8" standalone="no"?>
<!DOCTYPE svg PUBLIC "-//W3C//DTD SVG 1.1//EN" "http://www.w3.org/Graphics/SVG/1.1/DTD/svg11.dtd">
<svg width="100%" height="100%" viewBox="0 0 1020 291" version="1.1" xmlns="http://www.w3.org/2000/svg" xmlns:xlink="http://www.w3.org/1999/xlink" xml:space="preserve" xmlns:serif="http://www.serif.com/" style="fill-rule:evenodd;clip-rule:evenodd;stroke-linejoin:round;stroke-miterlimit:2;">
    <path d="M118,125C116,125 114,127 114,129L114,170C114,172 116,174 118,174L151,174L151,225C151,225 144,228 123,228C99,228 66,219 66,145C66,71 101,62 134,62C163,62 175,67 183,69C185,70 188,67 188,65L197,25C197,24 197,23 195,22C192,20 173,9 124,9C67,9 11,32 11,148C11,263 77,280 132,280C178,280 206,261 206,261C207,260 207,259 207,258L207,129C207,127 205,125 203,125" style="fill:rgb(153,153,153);fill-rule:nonzero;"/>
    <path d="M635,23C635,21 633,19 631,19L584,19C582,19 580,21 580,23L580,114L506,114L506,23C506,21 504,19 502,19L455,19C453,19 451,21 451,23L451,270C451,272 453,274 455,274L502,274C504,274 506,272 506,270L506,164L580,164L580,270C580,272 582,274 584,274L631,274C633,274 635,272 635,270L635,23" style="fill:rgb(153,153,153);fill-rule:nonzero;"/>
    <circle cx="261" cy="56" r="31" style="fill:rgb(153,153,153);"/>
    <path d="M288,104C288,102 286,100 284,100L237,100C235,100 233,102 233,104L233,268C233,273 236,274 240,274L283,274C288,274 289,272 289,268" style="fill:rgb(153,153,153);fill-rule:nonzero;"/>
    <path d="M768,101C766,101 764,103 764,105L764,226C764,226 752,235 735,235C718,235 714,227 714,211L714,105C714,103 712,101 710,101L663,101C661,101 659,103 659,105L659,219C659,268 686,280 724,280C755,280 780,263 780,263C780,263 781,272 782,273C783,274 784,275 785,275L815,275C817,275 819,273 819,271L819,105C819,103 817,101 815,101" style="fill:rgb(153,153,153);fill-rule:nonzero;"/>
    <path d="M926,236C906,236 897,227 897,227L897,148C897,148 908,141 921,140C938,138 954,144 954,184C954,227 949,236 925,236L926,236ZM899,108L899,23C899,21 897,19 895,19L848,19C846,19 844,21 844,23L844,270C844,272 846,274 848,274L881,274C882,274 884,273 884,272C885,271 886,261 886,261C886,261 905,280 942,280C985,280 1010,258 1010,182C1010,106 971,96 944,96C917,96 899,108 899,108Z" style="fill:rgb(153,153,153);fill-rule:nonzero;"/>
    <path d="M389,100L389,53C389,51 388,50 386,50L337,50C335,50 334,51 334,54L334,103C334,103 310,109 308,109C306,110 305,111 305,113L305,144C305,146 307,148 309,148L334,148L334,221C334,276 372,281 398,281C410,281 424,277 426,276C427,275 428,274 428,272L428,239C428,237 426,235 424,235C422,235 417,236 411,236C394,236 388,228 388,217L388,148L423,148C425,148 427,146 427,144L427,104C427,102 425,100 423,100" style="fill:rgb(153,153,153);fill-rule:nonzero;"/>
</svg>
