<?xml version="1.0" encoding="UTF-8" standalone="no"?>
<!DOCTYPE svg PUBLIC "-//W3C//DTD SVG 1.1//EN" "http://www.w3.org/Graphics/SVG/1.1/DTD/svg11.dtd">
<svg width="100%" height="100%" viewBox="0 0 90 28" version="1.1" xmlns="http://www.w3.org/2000/svg" xmlns:xlink="http://www.w3.org/1999/xlink" xml:space="preserve" xmlns:serif="http://www.serif.com/" style="fill-rule:evenodd;clip-rule:evenodd;stroke-linejoin:round;stroke-miterlimit:2;">
    <g transform="matrix(1.06098,0,0,1.06098,0.113817,4.45612e-05)">
        <path d="M37.081,22.933C37.079,23.625 36.886,24.167 36.501,24.559C36.116,24.952 35.585,25.147 34.906,25.145C34.241,25.144 33.719,24.945 33.341,24.55C32.964,24.154 32.776,23.612 32.777,22.923C32.779,22.237 32.969,21.697 33.349,21.305C33.729,20.913 34.259,20.717 34.94,20.719C35.637,20.721 36.169,20.912 36.535,21.293C36.901,21.674 37.083,22.221 37.081,22.933ZM35.921,22.931C35.923,22.423 35.841,22.055 35.675,21.825C35.51,21.596 35.27,21.481 34.954,21.481C34.618,21.48 34.365,21.599 34.196,21.84C34.027,22.08 33.942,22.442 33.941,22.926C33.94,23.402 34.021,23.764 34.185,24.013C34.349,24.262 34.586,24.387 34.896,24.388C35.238,24.389 35.494,24.268 35.664,24.025C35.834,23.782 35.92,23.417 35.921,22.931Z" style="fill:rgb(191,13,62);fill-rule:nonzero;"/>
        <path d="M39.266,21.558L39.258,25.077L38.153,25.074L38.161,21.555L37.538,21.554L37.54,20.804L38.163,20.806L38.164,20.36C38.165,19.973 38.268,19.687 38.474,19.501C38.68,19.314 38.991,19.222 39.41,19.223C39.625,19.223 39.859,19.245 40.112,19.288L40.11,20.002C40.005,19.978 39.897,19.966 39.786,19.965C39.597,19.965 39.464,20.002 39.386,20.077C39.308,20.152 39.269,20.284 39.269,20.473L39.268,20.808L40.108,20.81L40.106,21.56L39.266,21.558Z" style="fill:rgb(191,13,62);fill-rule:nonzero;"/>
        <path d="M45.387,20.432L45.376,25.091L44.213,25.089L44.224,20.43L42.429,20.425L42.431,19.526L47.188,19.537L47.186,20.437L45.387,20.432Z" style="fill:rgb(191,13,62);fill-rule:nonzero;"/>
        <path d="M48.146,23.177C48.145,23.592 48.221,23.906 48.375,24.118C48.528,24.33 48.747,24.437 49.031,24.437C49.225,24.438 49.385,24.395 49.511,24.31C49.636,24.225 49.723,24.098 49.774,23.93L50.819,24.023C50.515,24.796 49.9,25.181 48.974,25.179C48.332,25.177 47.84,24.986 47.496,24.605C47.152,24.224 46.981,23.67 46.983,22.941C46.985,22.236 47.161,21.695 47.512,21.317C47.862,20.939 48.359,20.751 49,20.753C49.613,20.754 50.081,20.958 50.403,21.365C50.726,21.773 50.886,22.368 50.884,23.152L50.884,23.183L48.146,23.177ZM49.813,22.486C49.792,22.142 49.71,21.883 49.566,21.711C49.422,21.538 49.227,21.451 48.983,21.451C48.722,21.45 48.522,21.54 48.381,21.722C48.239,21.903 48.164,22.156 48.156,22.482L49.813,22.486Z" style="fill:rgb(191,13,62);fill-rule:nonzero;"/>
        <path d="M53.396,23.564L52.39,25.108L51.211,25.105L52.778,22.904L51.296,20.837L52.491,20.84L53.399,22.238L54.31,20.844L55.513,20.847L54.021,22.895L55.59,25.116L54.387,25.113L53.396,23.564Z" style="fill:rgb(191,13,62);fill-rule:nonzero;"/>
        <path d="M57.199,25.198C56.786,25.197 56.464,25.084 56.233,24.859C56.003,24.633 55.888,24.317 55.889,23.909C55.89,23.467 56.034,23.132 56.323,22.904C56.611,22.676 57.029,22.557 57.576,22.548L58.496,22.535L58.496,22.318C58.497,22.039 58.449,21.832 58.352,21.696C58.255,21.56 58.096,21.492 57.875,21.492C57.67,21.491 57.519,21.538 57.423,21.631C57.326,21.724 57.266,21.878 57.242,22.094L56.086,22.036C56.233,21.192 56.845,20.771 57.924,20.774C58.463,20.775 58.878,20.909 59.169,21.175C59.461,21.442 59.606,21.819 59.605,22.308L59.601,23.863C59.6,24.102 59.627,24.267 59.681,24.358C59.734,24.449 59.824,24.494 59.951,24.495C60.035,24.495 60.116,24.487 60.195,24.472L60.194,25.071C60.057,25.105 59.94,25.131 59.842,25.147C59.745,25.164 59.625,25.173 59.483,25.172C59.205,25.172 58.999,25.103 58.867,24.966C58.734,24.828 58.655,24.627 58.629,24.361L58.606,24.361C58.45,24.64 58.255,24.849 58.02,24.989C57.786,25.129 57.512,25.199 57.199,25.198ZM58.494,23.146L57.926,23.153C57.666,23.165 57.483,23.192 57.377,23.234C57.27,23.281 57.187,23.352 57.13,23.447C57.074,23.541 57.045,23.667 57.045,23.825C57.044,24.028 57.091,24.178 57.184,24.277C57.277,24.376 57.401,24.426 57.556,24.426C57.73,24.426 57.889,24.379 58.034,24.285C58.176,24.191 58.288,24.06 58.37,23.893C58.452,23.727 58.493,23.55 58.493,23.363L58.494,23.146Z" style="fill:rgb(191,13,62);fill-rule:nonzero;"/>
        <path d="M64.307,23.89C64.306,24.303 64.137,24.626 63.798,24.861C63.46,25.096 62.992,25.212 62.395,25.211C61.808,25.209 61.359,25.116 61.048,24.929C60.737,24.743 60.531,24.454 60.429,24.062L61.404,23.918C61.458,24.121 61.553,24.265 61.689,24.349C61.824,24.433 62.06,24.476 62.396,24.477C62.707,24.478 62.933,24.439 63.075,24.36C63.218,24.282 63.289,24.158 63.289,23.99C63.289,23.853 63.233,23.744 63.118,23.664C63.004,23.584 62.81,23.515 62.537,23.459C62.329,23.417 62.143,23.376 61.979,23.336C61.815,23.296 61.674,23.257 61.557,23.218C61.44,23.18 61.345,23.144 61.271,23.109C61.053,23.001 60.887,22.863 60.773,22.694C60.659,22.525 60.603,22.317 60.603,22.07C60.604,21.663 60.762,21.345 61.077,21.119C61.392,20.892 61.837,20.779 62.413,20.781C62.921,20.782 63.329,20.881 63.637,21.079C63.946,21.277 64.138,21.563 64.213,21.937L63.231,22.037C63.2,21.863 63.122,21.734 62.999,21.648C62.876,21.562 62.68,21.519 62.411,21.518C62.148,21.518 61.951,21.551 61.819,21.617C61.688,21.684 61.622,21.796 61.621,21.954C61.621,22.078 61.671,22.176 61.773,22.249C61.874,22.321 62.044,22.381 62.283,22.429C62.617,22.498 62.913,22.569 63.172,22.642C63.431,22.715 63.639,22.802 63.797,22.902C63.952,23.003 64.076,23.131 64.169,23.288C64.262,23.445 64.308,23.645 64.307,23.89Z" style="fill:rgb(191,13,62);fill-rule:nonzero;"/>
        <path d="M66.341,24.881C66.34,25.196 66.306,25.475 66.238,25.717C66.17,25.959 66.061,26.183 65.911,26.391L65.181,26.389C65.337,26.203 65.463,25.998 65.561,25.775C65.659,25.551 65.708,25.34 65.709,25.14L65.2,25.139L65.203,23.935L66.343,23.938L66.341,24.881Z" style="fill:rgb(191,13,62);fill-rule:nonzero;"/>
        <path d="M73.814,24.26L73.812,25.159L69.666,25.149L69.679,19.591L70.843,19.593L70.831,24.252L73.814,24.26Z" style="fill:rgb(191,13,62);fill-rule:nonzero;"/>
        <path d="M78.749,24.271L78.747,25.171L74.601,25.161L74.614,19.602L75.778,19.605L75.767,24.264L78.749,24.271Z" style="fill:rgb(191,13,62);fill-rule:nonzero;"/>
        <path d="M82.134,24.342C82.839,24.344 83.327,23.993 83.6,23.289L84.613,23.674C84.393,24.21 84.072,24.608 83.649,24.869C83.227,25.129 82.721,25.259 82.131,25.258C81.537,25.256 81.031,25.141 80.613,24.913C80.196,24.684 79.878,24.354 79.659,23.922C79.441,23.491 79.332,22.972 79.333,22.367C79.335,21.757 79.441,21.242 79.653,20.822C79.864,20.401 80.175,20.082 80.586,19.863C80.997,19.645 81.499,19.536 82.094,19.537C82.746,19.539 83.277,19.671 83.687,19.934C84.096,20.196 84.383,20.582 84.548,21.09L83.521,21.367C83.435,21.088 83.266,20.866 83.012,20.701C82.759,20.536 82.46,20.453 82.115,20.453C81.589,20.451 81.19,20.613 80.917,20.939C80.644,21.264 80.507,21.741 80.505,22.37C80.504,22.796 80.566,23.155 80.69,23.447C80.814,23.74 80.998,23.962 81.241,24.113C81.484,24.265 81.781,24.342 82.134,24.342Z" style="fill:rgb(191,13,62);fill-rule:nonzero;"/>
        <path d="M0,-0L0,13.76L2.881,13.76L2.881,8.535L6.26,8.535L9.451,13.756L7.639,18.721L10.641,18.721L11.914,15.057L17.379,15.057L18.645,18.697L18.645,25.867L21.523,25.867L21.523,20.642L24.902,20.642L28.096,25.867L31.338,25.867L27.617,20.086C28.548,19.865 29.287,19.405 29.834,18.709C30.381,18.006 30.654,17.174 30.654,16.211C30.654,14.889 30.208,13.877 29.316,13.174C28.425,12.464 27.158,12.109 25.518,12.109L19.223,12.109L16.412,4.379L12.871,4.379L10.623,10.541L8.975,7.978C9.906,7.757 10.645,7.298 11.191,6.601C11.738,5.898 12.012,5.065 12.012,4.101C12.012,2.78 11.566,1.767 10.674,1.064C9.782,0.355 8.516,-0 6.875,-0L0,-0ZM2.881,2.236L6.572,2.236C7.419,2.236 8.053,2.402 8.477,2.734C8.9,3.066 9.111,3.561 9.111,4.219C9.111,4.876 8.903,5.387 8.486,5.752C8.07,6.116 7.458,6.299 6.65,6.299L2.881,6.299L2.881,2.236ZM14.643,6.588C14.731,6.866 14.815,7.147 14.897,7.432C14.978,7.717 15.065,7.999 15.16,8.277L16.707,12.797L12.586,12.797L14.092,8.369C14.146,8.213 14.235,7.944 14.357,7.564C14.48,7.184 14.575,6.859 14.643,6.588ZM21.523,14.346L25.215,14.346C26.061,14.346 26.696,14.512 27.119,14.844C27.542,15.176 27.754,15.671 27.754,16.328C27.754,16.985 27.546,17.497 27.129,17.861C26.712,18.226 26.1,18.406 25.293,18.406L21.523,18.406L21.523,14.346Z" style="fill:rgb(191,13,62);fill-rule:nonzero;"/>
    </g>
</svg>
