<!-- Generator: Adobe Illustrator 23.1.1, SVG Export Plug-In  -->
<svg version="1.1" xmlns="http://www.w3.org/2000/svg" xmlns:xlink="http://www.w3.org/1999/xlink" x="0px" y="0px"
	 width="229.02px" height="44.96px" viewBox="0 0 229.02 44.96" style="enable-background:new 0 0 229.02 44.96;"
	 xml:space="preserve">
<style type="text/css">
	.st0{fill:#ED1C2E;}
</style>
<defs>
</defs>
<g>
	<path class="st0" d="M181.57,41.79h0.89v-2.93l2.46-3.9H184l-1.98,3.12l-1.99-3.12h-0.98l2.52,3.91V41.79z M171.43,41.79h0.8v-5.43
		l4.43,5.43h0.75v-6.83h-0.8v5.39l-4.4-5.39h-0.78V41.79z M165.17,39.49l0.72-1.53c0.09-0.19,0.17-0.37,0.24-0.55l0.25-0.63
		c0.09-0.24,0.15-0.42,0.17-0.55h0.06c0.02,0.13,0.09,0.37,0.22,0.72l0.19,0.54c0.07,0.19,0.15,0.38,0.23,0.56l0.62,1.43H165.17z
		 M163.17,41.79h0.92l0.7-1.49h3.42l0.65,1.49h0.97l-2.96-6.83h-0.51L163.17,41.79z M157.15,39.49v-3.71h1.67
		c0.67,0,1.21,0.14,1.6,0.42c0.44,0.31,0.67,0.76,0.67,1.36c0,0.62-0.2,1.1-0.59,1.44c-0.38,0.33-0.9,0.49-1.55,0.49H157.15z
		 M156.26,41.79h0.89V40.3h1.68c0.93,0,1.68-0.24,2.28-0.73c0.62-0.51,0.94-1.2,0.94-2.07c0-0.83-0.3-1.47-0.89-1.91
		c-0.55-0.41-1.28-0.62-2.19-0.62h-2.7V41.79z M146.25,41.79h0.86l0.39-5.09l2.47,2.78h0.1l2.55-2.82l0.44,5.13h0.87l-0.58-6.82
		h-0.28l-3.01,3.3l-3.01-3.3h-0.26L146.25,41.79z M139.3,35.87c0.33-0.13,0.72-0.2,1.17-0.2c0.45,0,0.89,0.13,1.32,0.38
		c0.44,0.25,0.78,0.58,1.02,0.99c0.26,0.43,0.39,0.9,0.39,1.41c0,0.75-0.27,1.38-0.8,1.88c-0.53,0.5-1.18,0.75-1.94,0.75
		c-0.78,0-1.45-0.27-2-0.81c-0.26-0.25-0.46-0.54-0.61-0.88s-0.22-0.7-0.22-1.08c0-0.39,0.07-0.74,0.21-1.06
		c0.14-0.32,0.34-0.6,0.59-0.83C138.68,36.19,138.97,36,139.3,35.87 M138.94,41.63c0.45,0.17,0.88,0.25,1.31,0.25
		c0.43,0,0.8-0.04,1.13-0.12c0.65-0.16,1.2-0.45,1.66-0.88c0.73-0.68,1.1-1.54,1.1-2.58c0-0.66-0.17-1.25-0.51-1.79
		c-0.33-0.51-0.77-0.92-1.33-1.2c-0.57-0.3-1.19-0.44-1.85-0.44c-0.69,0-1.33,0.15-1.91,0.46c-0.28,0.15-0.53,0.33-0.76,0.54
		c-0.23,0.21-0.42,0.45-0.59,0.72c-0.16,0.27-0.29,0.55-0.38,0.87c-0.09,0.31-0.13,0.68-0.13,1.11c0,0.43,0.1,0.85,0.29,1.27
		c0.19,0.42,0.46,0.78,0.79,1.09C138.1,41.23,138.5,41.47,138.94,41.63 M135.09,35.67c-0.68-0.53-1.48-0.8-2.42-0.8
		c-0.69,0-1.33,0.15-1.91,0.46c-0.28,0.15-0.53,0.33-0.76,0.54c-0.23,0.21-0.42,0.45-0.59,0.72c-0.16,0.27-0.29,0.55-0.38,0.87
		c-0.09,0.31-0.13,0.68-0.13,1.11c0,0.43,0.1,0.85,0.29,1.27c0.19,0.42,0.46,0.78,0.8,1.09c0.34,0.3,0.73,0.54,1.17,0.71
		c0.45,0.17,0.92,0.25,1.43,0.25c0.25,0,0.5-0.02,0.74-0.06c0.75-0.12,1.35-0.38,1.83-0.79l-0.35-0.67
		c-0.12,0.1-0.27,0.19-0.43,0.27c-0.57,0.29-1.13,0.43-1.7,0.43c-0.78,0-1.45-0.27-2-0.81c-0.55-0.54-0.83-1.2-0.83-1.98
		c0-0.75,0.27-1.38,0.81-1.88c0.53-0.5,1.18-0.75,1.94-0.75c0.84,0,1.52,0.24,2.06,0.71L135.09,35.67z M118.52,41.79h5.19v-0.81
		h-4.3v-2.55h3.75v-0.81h-3.75v-1.84h4.2v-0.81h-5.1V41.79z M112.1,41.79h4.61v-0.81H113v-6.02h-0.89V41.79z M106.84,41.79h0.89
		v-6.02h2.56v-0.81h-6.02v0.81h2.56V41.79z M101.59,41.79h0.89v-6.83h-0.89V41.79z M96.33,41.79h0.89v-6.02h2.56v-0.81h-6.02v0.81
		h2.56V41.79z"/>
	<path d="M215.46,27.53h13.56v-2.11h-11.23v-6.67h9.78v-2.11h-9.78v-4.81h10.98V9.71h-13.3V27.53z M210.72,11.54
		c-1.77-1.39-3.88-2.09-6.32-2.09c-1.8,0-3.47,0.4-5,1.21c-0.73,0.39-1.39,0.86-1.99,1.41c-0.6,0.55-1.11,1.18-1.54,1.87
		c-0.43,0.69-0.76,1.45-0.99,2.27c-0.23,0.82-0.35,1.79-0.35,2.9c0,1.12,0.25,2.22,0.76,3.32c0.51,1.1,1.2,2.05,2.08,2.84
		c0.88,0.79,1.9,1.41,3.06,1.85c1.17,0.44,2.41,0.66,3.73,0.66c0.66,0,1.31-0.05,1.94-0.15c1.95-0.31,3.54-0.99,4.77-2.05
		l-0.91-1.74c-0.32,0.26-0.7,0.5-1.13,0.72c-1.48,0.76-2.96,1.13-4.44,1.13c-2.05,0-3.79-0.7-5.22-2.1
		c-1.44-1.41-2.17-3.13-2.17-5.16c0-1.96,0.7-3.6,2.1-4.92c1.38-1.31,3.07-1.96,5.06-1.96c2.19,0,3.98,0.62,5.38,1.86L210.72,11.54z
		 M173.36,27.53h2.08V13.36L187,27.53h1.95V9.71h-2.08v14.07L175.4,9.71h-2.04V27.53z M157.02,21.51l1.88-4
		c0.23-0.49,0.44-0.96,0.63-1.44l0.64-1.64c0.23-0.62,0.39-1.1,0.45-1.43h0.15c0.06,0.34,0.25,0.96,0.57,1.89l0.5,1.42
		c0.19,0.5,0.39,0.99,0.59,1.46l1.61,3.74H157.02z M151.81,27.53h2.39l1.82-3.9h8.92l1.69,3.9h2.54l-7.72-17.82h-1.32L151.81,27.53z
		 M145.31,27.53h2.33V9.71h-2.33V27.53z M124.41,25.28c0.57,0.53,1.19,0.98,1.88,1.35c0.69,0.37,1.43,0.66,2.24,0.86
		c0.81,0.2,1.6,0.3,2.38,0.3s1.46-0.06,2.05-0.18c1.6-0.34,2.88-0.94,3.84-1.8v1.72h2.33v-8.14h-8.51v2.11h6.18v1.93
		c-0.25,0.29-0.56,0.57-0.92,0.84c-1.28,0.95-2.72,1.42-4.34,1.42c-2.14,0-3.9-0.68-5.27-2.03c-1.38-1.35-2.08-3.1-2.08-5.24
		c0-1.96,0.7-3.6,2.1-4.92c1.38-1.31,3.07-1.96,5.06-1.96c2.2,0,4.03,0.64,5.5,1.91l1.31-1.79c-1.74-1.48-3.93-2.22-6.58-2.22
		c-1.8,0-3.47,0.4-5,1.21c-0.73,0.39-1.39,0.86-1.99,1.41c-0.6,0.55-1.11,1.18-1.54,1.87c-0.43,0.69-0.76,1.45-0.99,2.27
		c-0.23,0.82-0.35,1.68-0.35,2.57c0,0.9,0.11,1.74,0.33,2.52c0.22,0.78,0.52,1.51,0.92,2.18C123.36,24.15,123.84,24.75,124.41,25.28
		 M103.52,27.53h13.56v-2.11h-11.23v-6.67h9.78v-2.11h-9.78v-4.81h10.98V9.71h-13.3V27.53z M86.77,27.53h12.05v-2.11H89.1V9.71
		h-2.33V27.53z M70.02,27.53h12.05v-2.11h-9.72V9.71h-2.33V27.53z M53.68,21.51l1.88-4c0.23-0.49,0.44-0.96,0.63-1.44l0.64-1.64
		c0.23-0.62,0.39-1.1,0.45-1.43h0.15c0.06,0.34,0.25,0.96,0.57,1.89l0.5,1.42c0.19,0.5,0.39,0.99,0.59,1.46l1.61,3.74H53.68z
		 M48.47,27.53h2.39l1.82-3.9h8.92l1.69,3.9h2.54L58.12,9.71H56.8L48.47,27.53z"/>
	<polygon class="st0" points="23.73,0 5.71,44.81 0,44.81 18.02,0 	"/>
	<polygon class="st0" points="35.9,30.76 33.76,25.45 26.47,25.42 30.11,16.38 27.26,9.27 12.95,44.8 18.66,44.8 24.34,30.72 	"/>
	<polygon class="st0" points="41.54,44.4 37.69,42.03 34.24,44.96 35.3,40.57 31.45,38.2 35.96,37.85 37.02,33.45 38.75,37.63
		43.26,37.28 39.81,40.22 	"/>
</g>
</svg>
