<svg width="102" height="65" viewBox="0 0 102 65" fill="none" xmlns="http://www.w3.org/2000/svg"><path d="M35.988 24.895c-1.306 0-1.744.19-1.744.686 0 .438.438.496.752.562.313.065 1 .065 1.306.065 8.853 0 15.334-6.232 15.334-15.085 0-3.306-1.745-6.11-3.117-7.415-1-.935-3.802-3.555-11.597-3.555-2.868 0-6.48.19-9.035.19h-14.91c-1.62 0-5.547-.19-8.853-.19-.935 0-1.373.124-1.373.562 0 .438.373.562 1.059.562.876 0 1.934.066 2.43.19 2.058.438 2.554 1.43 2.679 3.554.124 1.993.124 3.737.124 13.217v18.633c0 12.218.065 18.45-4.679 23.253-1.248 1.248-2.182 1.934-2.992 2.371C.314 63.059 0 63.306 0 63.62c0 .313.248.496.496.496.314 0 .81-.124 1.248-.373 1.307-.62 2.307-1.123 3.117-1.62 5.984-3.678 9.21-7.977 10.524-11.78 1.248-3.488 1.423-7.48 1.423-11.034 0-3.117-.037-6.109-.037-8.787v-12.29c0-9.474 0-11.218.125-13.218.124-2.182.62-3 2.306-3.306.343-.059 1.59-.059 1.817 0 2.058.438 2.555 1.19 2.679 3.306.124 1.992.124 3.737.124 13.217v10.97c0 5.736 0 10.655-.314 13.275-.248 1.81-.562 3.182-1.81 3.43a10.13 10.13 0 01-2.24.249c-.752 0-1 .19-1 .496 0 .438.437.62 1.248.62 2.495 0 6.422-.19 7.852-.19 1.62 0 5.547.19 9.663.19.687 0 1.183-.19 1.183-.62 0-.314-.314-.496-1-.496-.934 0-2.306-.124-3.182-.249-1.869-.248-2.24-1.62-2.43-3.364-.314-2.679-.314-7.605-.314-13.341V4.262c0-.686.19-1.058.496-1.182.562-.19 1.496-.248 2.43-.248 1.43 0 3.992.372 6.233 2.43 3.489 3.116 3.678 7.291 3.678 9.35.03 6.356-4.831 10.283-8.327 10.283z" fill="#015297"/><path d="M29.785 57.219H15.81a.358.358 0 01-.358-.358v-.496c0-.197.16-.358.358-.358h13.969c.197 0 .357.16.357.358v.496c0 .205-.16.358-.35.358zm71.742 0H87.551a.358.358 0 01-.358-.358v-.496c0-.197.16-.358.358-.358h13.969c.197 0 .358.16.358.358v.496a.348.348 0 01-.351.358zm-.409-10.889c-.503 0-1.073-.066-1.773-.19-.949-.19-4.525-.328-7.583-4.379-3.306-4.379-5.561-8.554-8.89-16.59 6.715-4.458 8.109-9.268 8.109-13.902 0-4.197-2.533-7.386-4.299-8.576C83.267.38 79.026 0 75.042 0c-1.964 0-9.518.182-9.934.168l1.467 4.328 3.095 8.29c.16.431.562.723 1.029.738l9.911.387-7.087 5.532a1.121 1.121 0 00-.343 1.328c1.226 2.854 5.452 12.597 7.43 16.158 2.897 5.226 3.963 7.89 6.685 9.328 1.642.876 3.226 1.19 6.766 1.19h6.006c.759 0 1.81-.125 1.81-.628 0-.3-.248-.49-.759-.49zM60.759 13.348a1.15 1.15 0 001.05-.737l2.453-6.707L62.22.752c-.329-.781-1.475-.781-1.803 0l-5.408 12.816 5.75-.22zM81.266 46.17l-6.714-14.926-8.145-5.569a1.204 1.204 0 00-1.277-.029l-9.313 5.525 3.022-9.685a1.114 1.114 0 00-.394-1.211l-4.708-3.57L41.308 46.17a.915.915 0 00.059.818c.24.401.78.503 1.167.248L62.13 34.499a.736.736 0 01.84 0l17.027 12.685c.46.343 1.138.146 1.306-.402a.893.893 0 00-.037-.613zM36.133 57.087l-.489-.021v4.707h-1.518v-9.97h2.518c.525 0 .912.103 1.168.314.255.212.423.504.51.876.08.38.125.869.125 1.474 0 .606-.066 1.066-.19 1.387a1.088 1.088 0 01-.715.642c.343.059.584.292.722.7.139.402.204 1.249.204 2.526 0 1.277.022 1.963.059 2.058H37c-.036-.073-.058-1.27-.058-3.576 0-.445-.051-.737-.16-.883-.11-.146-.329-.226-.65-.233zm-.482-1.197h.606c.19 0 .336-.043.43-.13.096-.088.161-.234.19-.446.037-.212.051-.533.051-.97v-.066c0-.54-.043-.89-.138-1.059-.088-.168-.3-.248-.628-.248h-.518v2.92h.007zm4.211 5.883v-9.97h3.35v1.307H41.38v2.905h1.737v1.277H41.38v3.175h1.898v1.306h-3.416zm4.175 0l1.423-9.977h2.007l1.518 9.977h-1.423l-.24-1.78h-1.614l-.218 1.78h-1.453zm3.138-2.992l-.671-5.007h-.022l-.613 5.007h1.306zm2.861 2.992v-9.97h1.526v8.686h1.926v1.291h-3.452v-.007zm6.408 0v-9.97h3.35v1.307h-1.832v2.905H59.7v1.277h-1.737v3.175h1.898v1.306h-3.416zm4.43-2.803v-.89h1.446v1c0 .555.043.949.138 1.168.095.226.27.335.533.335s.438-.094.518-.277c.088-.182.132-.489.132-.905 0-.416-.073-.788-.227-1.095-.153-.313-.394-.635-.722-.978l-.737-.759a4.478 4.478 0 01-.803-1.116c-.19-.387-.285-.832-.285-1.336 0-.825.16-1.438.475-1.84.32-.4.868-.598 1.642-.598.773 0 1.299.234 1.576.701.278.467.409 1.146.409 2.044v.62h-1.401v-.715c0-.482-.044-.832-.124-1.037-.08-.211-.241-.314-.482-.314s-.409.08-.511.241c-.102.161-.153.395-.153.716 0 .313.05.569.16.759.11.19.3.43.577.722l.825.89c.415.446.722.898.934 1.358.211.46.314.956.314 1.496 0 .934-.161 1.62-.475 2.066-.314.445-.861.671-1.65.671-.787 0-1.335-.248-1.641-.744-.307-.504-.468-1.234-.468-2.182zm5.854 2.803v-8.656h-1.167v-1.313h3.81v1.313h-1.125v8.663h-1.518v-.007zm3.029 0l1.423-9.977h2.007l1.518 9.977h-1.423l-.24-1.78h-1.614l-.219 1.78h-1.452zm3.13-2.992l-.67-5.007h-.022l-.614 5.007h1.307zm3.263 2.992v-8.656h-1.17v-1.313h3.81v1.313h-1.124v8.663H76.15v-.007zm3.482 0v-9.97h3.35v1.307H81.15v2.905h1.737v1.277H81.15v3.175h1.897v1.306h-3.415zm16.596-57.19a1.557 1.557 0 01-.205-.795c0-.292.066-.555.205-.796.139-.24.32-.423.562-.562.24-.138.503-.204.795-.204.292 0 .555.066.796.204.24.139.423.321.562.562.138.241.204.504.204.796 0 .292-.066.555-.204.795a1.48 1.48 0 01-.562.562 1.556 1.556 0 01-.796.205 1.537 1.537 0 01-1.358-.766zm1.357-2.05c-.46 0-.802.182-1.029.54a1.316 1.316 0 00-.197.715c0 .416.146.744.438.992.204.176.467.263.788.263.38 0 .686-.124.898-.372.219-.248.328-.54.328-.883 0-.416-.146-.745-.438-.993a1.195 1.195 0 00-.788-.262zm.46.751v.066c0 .11-.007.182-.022.204a2.03 2.03 0 01-.058.08c-.022.03-.073.052-.154.066.073.008.125.03.161.073.037.044.051.117.051.212v.825h-.306v-.79c0-.073-.015-.124-.051-.153-.037-.036-.103-.05-.212-.05v.992h-.314V2.788h.504c.16 0 .27.036.32.11.06.072.081.204.081.386zm-.328.241a.226.226 0 00.036-.087c0-.03.007-.088.007-.183s-.014-.153-.05-.182c-.037-.03-.117-.051-.249-.051v.569a.886.886 0 00.168-.015c.044-.007.073-.022.088-.05z" fill="#015297"/></svg>