<?xml version="1.0" encoding="utf-8"?>
<!-- Generator: Adobe Illustrator 26.0.3, SVG Export Plug-In . SVG Version: 6.00 Build 0)  -->
<svg version="1.1" id="Layer_1" xmlns="http://www.w3.org/2000/svg" xmlns:xlink="http://www.w3.org/1999/xlink" x="0px" y="0px"
	 viewBox="0 0 649.2 374.3" style="enable-background:new 0 0 649.2 374.3;" xml:space="preserve">
<style type="text/css">
	.st0{fill:#FBCD35;}
	.st1{fill:#08A04B;}
	.st2{fill:#0F3E63;}
</style>
<path class="st0" d="M190.8,284.4c-24.7-9.5-44.6-30.9-51.5-59.3c-11.1-45.8,15.9-92.2,60.3-103.7c16.5-4.3,33.1-3.1,48.1,2.4
	l22.8-57.3l-25.6,44.5l4.5-92.5l-27.5,86.3l-10-59.4l-3.5,62.6L173.2,9.6l11.7,101.8l-34.2-59.6l22.9,67.9l-72.3-77.3l51.8,89.7
	L99.4,90.6l46.4,53.6l-109-53.1l94.6,72.7l-65.1-17.1l62.8,31.2l-120.4-6l114.4,29.7l-66.5,9.9l69.6,4l-90,36.6l93.2-12.3
	l-57.8,35.4l65.8-23.8l-70.6,68.5l82.6-47.3l-34.7,50.3l46.4-42.8l-35,84.6l53.9-69.8l-9.1,45.6L190.8,284.4z"/>
<path class="st0" d="M393.4,157.6l-6.7,11.1c-4,6.8-3.8,14.6,0.5,19l7.1,7.3c0.4,0.4-0.2,1.1-0.6,0.9l-9.1-4.7
	c-5.5-2.8-13.1-0.8-18.4,5.1l-8.7,9.6c-0.4,0.5-1,0-0.7-0.5l6.7-11.1c4-6.8,3.8-14.6-0.5-19l-7.1-7.3c-0.4-0.4,0.2-1.1,0.6-0.9
	l9.1,4.7c5.5,2.8,13.1,0.8,18.4-5.1l8.7-9.6C393.1,156.6,393.7,157.1,393.4,157.6z"/>
<g>
	<path class="st1" d="M212.4,200.9c8.3-23.5,34.1-8.3,23.8-6.3c-9.7,1.9-15.3,45.5-3.5,33.4c18.1-18.9,26.4-97.9-10.1-73.6
		c-22.9,15.1-43.8,88.5-1.3,103.1c12.1,4.2,26.8,5.7,38.5,13.1c12.8,8.2,19.2,27.7,14.8,41.2c-10,31.6-71.8,49.9-79.7,7.1
		c-2.1-11.7,3.2-28.3,16.2-33.6c14.1-5.7,18.5,8.2,9.2,11.4c-2.8,0.9-0.4-2.6-1.4-3.7c-2.6-3.1-5.6,3.7-5.2,10.9
		c1.8,28.8,46.2,7.9,42.4-10.5c-2.9-14.3-22.3-16.4-42.5-20.6c-12.7-2.7-23.1-7.5-31.2-13.6c-34.8-26.7-28.1-83.6,4.4-106.8
		c27.7-20,69.7-22.8,82,8.7c10.3,26.8-0.5,68-23.2,77.2C225.7,246.2,202,230.1,212.4,200.9z"/>
	<path class="st1" d="M290.1,158.5c12.9-19.9,36.8-2.2,32.2,1.7c-5.2,4.6-15.2,21.2-21.1,42.7c-5,18.7-4.9,34.7-3.3,53.5
		c1.6-15.4,5.7-38.8,14.7-44.8c7.4-4.8,18.1-3.2,21.7,4.4c4.9,10.5,2.2,46.4,7.2,51.8c4.5,4.8,11.6-2.2,13.5-8.2
		c3.1-10,5.8-20.1,9.2-27.4c2.8-5.9,4.8-6.1,5-0.2c0.7,15.7-10.6,45.1-22.9,57c-2.2,2.3-4,3.6-8.7,4.9c-9,1.9-15.4-3.7-19-11.1
		c-4.8-10.2-4-28.3-3.4-39.3c0.7-12.9,1.7-22.9-0.4-21.4c-4.2,2.9-13.3,45.5-10,72.3c5.1,9.4-15.8,16.1-21.1,0.1
		C273.2,262.3,272.5,186.1,290.1,158.5z"/>
	<path class="st1" d="M387.2,256.8c3.4,5.4,8.8-0.1,11.7-5.5c4.7-9.5,9.6-24.6,11.8-33.4c1.6-6.4,5.8-5.1,5.1,0.5
		c-2.2,15.8-13.6,50.3-27.8,60.1c-2.6,1.7-4.6,2.8-9.3,3.1c-6.8,0.3-13.2-3.7-16.4-12.5c-6.1-16.3-1.3-52.6,6.9-65.9
		c4.3-6.9,18-4.9,15.7,1.5C380.9,216,380,245.4,387.2,256.8z"/>
	<path class="st1" d="M497.4,215.1c-2.6,15.7-14.7,50-29,59.5c-2.3,1.5-4.6,2.6-7,3.2c-8.5,2.7-15.8-0.9-19-8.5
		c-8.3-19.2,15.5-75.2,7.5-66.5c-6.3,6.9-20.2,36.5-23.7,68.9c-1.2,10.7-18.8,12.9-20.7-4c-2.1-17.6,5.4-55.7,11.3-68.9
		c3.4-7.4,18.5-4.4,15.7,1.7c-2.3,5.5-4.8,21.6-6.2,36.4c6-21.6,12.4-34.8,18.1-40.8c8.1-8.8,23.5-5.8,26,4.5
		c2.9,11.8-6.1,44.2-2.7,55.1c0.2,0.7,0.6,1.3,0.9,1.8c5.1,8.1,19.9-27.8,23.8-42.9C494,208.2,498.2,209.5,497.4,215.1z"/>
	<path class="st1" d="M537.5,258.7c-7.9,0.9-11.4,17.7-21.4,22.9c-12.8,6.4-30.1,1.6-34.9-14c-5.6-19.1,5-60.3,24.2-67.3
		c9-3.3,16.6-0.1,20.7,6.5c7.9,12.2-1.1,41.5-20.7,44.4c-0.6,5,0.3,11,3.5,14.1c9.5,6.9,13.6-4.2,20.3-9.4c7.4-5.8,17.1-2,19.4,5.4
		c2.6,8.4-4.9,23.1-10.3,29.7c-44.5,51.8-233.9,40.9-260,60.4c-8.2,6.1-5.9-42.5,35.6-40.7c59,2.9,209.9,9.5,225.8-43.5
		C541.3,262.1,540.4,258.4,537.5,258.7z M518.6,216.5c0.9-7.2-1.3-8.8-5.1-3.7c-4.9,6.8-7.7,24.1-8.1,31.3
		C512.5,239,517.6,224.2,518.6,216.5z"/>
</g>
<g>
	<path class="st2" d="M266.7,132.6h2.4c1,0,1.5-0.6,1.6-1.6l3.4-42.9h7.4l11.9,26.8c1.2,2.7,2.5,6.4,2.5,6.4h0.1
		c0,0,1.3-3.7,2.5-6.4l11.9-26.8h7.4l3.4,42.9c0.1,1,0.6,1.6,1.6,1.6h2.4v6.2h-6.4c-3.2,0-4.4-1.4-4.6-4.6l-2.1-26.7
		c-0.2-3-0.1-7.5-0.1-7.5h-0.1c0,0-1.4,4.7-2.7,7.5L299,129.6h-6l-10.3-22.2c-1.2-2.7-2.7-7.5-2.7-7.5h-0.1c0,0,0.1,4.5-0.1,7.5
		l-2,26.7c-0.2,3.2-1.4,4.6-4.7,4.6h-6.4V132.6z"/>
	<path class="st2" d="M330,132.6h1c1.3,0,1.9-0.3,2.4-1.6l15.8-42.9h7.5l15.8,42.9c0.4,1.3,1.1,1.6,2.4,1.6h1.1v6.2h-4
		c-3.6,0-4.7-0.9-5.9-4.2l-3.8-10.4h-18.6l-3.8,10.4c-1.2,3.3-2.4,4.2-5.9,4.2H330V132.6z M360.5,118.2l-5.5-15.4
		c-0.9-2.7-2-7.1-2-7.1h-0.1c0,0-1,4.4-1.9,7.1l-5.5,15.4H360.5z"/>
	<path class="st2" d="M386.1,132.6h4.9V94.3h-4.9v-6.2h16.7v6.2h-4.9v38.3h4.9v6.2h-16.7V132.6z"/>
	<path class="st2" d="M417.6,94.3h-4.7v-6.2h20.5c15.4,0,25.6,9.2,25.6,25.2c0,16.1-10.2,25.4-25.6,25.4h-11.3
		c-3.2,0-4.6-1.4-4.6-4.6V94.3z M426.3,132.6h6.6c11.3,0,18.6-6.7,18.6-19.2c0-12.4-7.5-19.1-18.6-19.1h-8.2V131
		C424.7,132,425.3,132.6,426.3,132.6z"/>
	<path class="st2" d="M485.8,95.9c0-1.1-0.6-1.6-1.6-1.6h-3.1v-6.2h7.2c3.2,0,4.6,1.4,4.6,4.6v28c0,7.6,4.8,12.1,12.1,12.1
		c7.3,0,12.1-4.5,12.1-12.2v-28c0-3.2,1.4-4.6,4.7-4.6h7.2v6.2H526c-1,0-1.6,0.5-1.6,1.6V121c0,11-7.7,18.6-19.2,18.6
		c-11.6,0-19.4-7.5-19.4-18.6V95.9z"/>
</g>
</svg>
