<?xml version="1.0" encoding="utf-8"?>
<!-- Generator: Adobe Illustrator 23.0.1, SVG Export Plug-In . SVG Version: 6.00 Build 0)  -->
<svg version="1.1" id="Layer_1" xmlns="http://www.w3.org/2000/svg" xmlns:xlink="http://www.w3.org/1999/xlink" x="0px" y="0px"
	 viewBox="0 0 297.59 52.96" style="enable-background:new 0 0 297.59 52.96;" xml:space="preserve">
<style type="text/css">
	.Arched_x0020_Green{fill:url(#SVGID_1_);stroke:#FFFFFF;stroke-width:0.25;stroke-miterlimit:1;}
	.st0{fill:#EE3124;}
	.st1{fill:none;stroke:#FFFFFF;}
</style>
<linearGradient id="SVGID_1_" gradientUnits="userSpaceOnUse" x1="-161.874" y1="-372.3838" x2="-161.1669" y2="-373.0909">
	<stop  offset="0" style="stop-color:#20AC4B"/>
	<stop  offset="0.9831" style="stop-color:#19361A"/>
</linearGradient>
<g>
	<path d="M73.03,3.05c0.07-0.41,0.22-0.62,0.41-0.62s0.34,0.12,0.65,0.74l6.55,13.54l6.53-13.71c0.17-0.38,0.31-0.58,0.53-0.58
		c0.22,0,0.36,0.24,0.43,0.74l2.18,14.83c0.22,1.51,0.46,2.21,1.18,2.42c0.7,0.22,1.18,0.24,1.49,0.24c0.22,0,0.38,0.02,0.38,0.17
		c0,0.19-0.29,0.26-0.62,0.26c-0.6,0-3.91-0.07-4.87-0.14c-0.55-0.05-0.7-0.12-0.7-0.26c0-0.12,0.1-0.19,0.26-0.26
		c0.14-0.05,0.22-0.36,0.12-1.03L86.11,8.84h-0.1l-5.23,10.9c-0.55,1.13-0.67,1.34-0.89,1.34c-0.22,0-0.46-0.48-0.84-1.2
		c-0.58-1.1-2.47-4.78-2.76-5.45c-0.22-0.5-1.66-3.53-2.5-5.33h-0.1l-1.25,9.55c-0.05,0.43-0.07,0.74-0.07,1.13
		c0,0.46,0.31,0.67,0.72,0.77c0.43,0.1,0.77,0.12,1.01,0.12c0.19,0,0.36,0.05,0.36,0.17c0,0.22-0.22,0.26-0.58,0.26
		c-1.01,0-2.09-0.07-2.52-0.07c-0.46,0-1.61,0.07-2.38,0.07c-0.24,0-0.43-0.05-0.43-0.26c0-0.12,0.14-0.17,0.38-0.17
		c0.19,0,0.36,0,0.72-0.07c0.67-0.14,0.86-1.08,0.98-1.9L73.03,3.05z"/>
	<path d="M98.36,14.84c-0.12,0-0.17,0.05-0.22,0.19l-1.3,3.43c-0.24,0.6-0.36,1.18-0.36,1.46c0,0.43,0.22,0.74,0.96,0.74h0.36
		c0.29,0,0.36,0.05,0.36,0.19c0,0.19-0.14,0.24-0.41,0.24c-0.77,0-1.8-0.07-2.54-0.07c-0.26,0-1.58,0.07-2.83,0.07
		c-0.31,0-0.46-0.05-0.46-0.24c0-0.14,0.1-0.19,0.29-0.19c0.22,0,0.55-0.02,0.74-0.05c1.1-0.14,1.56-0.96,2.04-2.16l6.02-15.07
		c0.29-0.7,0.43-0.96,0.67-0.96c0.22,0,0.36,0.22,0.6,0.77c0.58,1.32,4.42,11.11,5.95,14.76c0.91,2.16,1.61,2.5,2.11,2.62
		c0.36,0.07,0.72,0.1,1.01,0.1c0.19,0,0.31,0.02,0.31,0.19c0,0.19-0.22,0.24-1.1,0.24c-0.86,0-2.62,0-4.54-0.05
		c-0.43-0.02-0.72-0.02-0.72-0.19c0-0.14,0.1-0.19,0.34-0.22c0.17-0.05,0.34-0.26,0.22-0.55l-1.92-5.09
		c-0.05-0.12-0.12-0.17-0.24-0.17H98.36z M103.26,13.64c0.12,0,0.14-0.07,0.12-0.14l-2.16-5.93c-0.02-0.1-0.05-0.22-0.12-0.22
		c-0.07,0-0.12,0.12-0.14,0.22l-2.21,5.9c-0.02,0.1,0,0.17,0.1,0.17H103.26z"/>
	<path d="M115.55,17.84c0.05,1.87,0.36,2.5,0.84,2.66c0.41,0.14,0.86,0.17,1.25,0.17c0.26,0,0.41,0.05,0.41,0.19
		c0,0.19-0.22,0.24-0.55,0.24c-1.56,0-2.52-0.07-2.98-0.07c-0.22,0-1.34,0.07-2.59,0.07c-0.31,0-0.53-0.02-0.53-0.24
		c0-0.14,0.14-0.19,0.38-0.19c0.31,0,0.74-0.02,1.08-0.12c0.62-0.19,0.72-0.89,0.74-2.98l0.22-14.21c0-0.48,0.07-0.82,0.31-0.82
		c0.26,0,0.48,0.31,0.89,0.74c0.29,0.31,3.94,4.22,7.44,7.7c1.63,1.63,4.87,5.09,5.28,5.47h0.12l-0.24-10.78
		c-0.02-1.46-0.24-1.92-0.82-2.16c-0.36-0.14-0.94-0.14-1.27-0.14c-0.29,0-0.38-0.07-0.38-0.22c0-0.19,0.26-0.22,0.62-0.22
		c1.25,0,2.4,0.07,2.9,0.07c0.26,0,1.18-0.07,2.35-0.07c0.31,0,0.55,0.02,0.55,0.22c0,0.14-0.14,0.22-0.43,0.22
		c-0.24,0-0.43,0-0.72,0.07c-0.67,0.19-0.86,0.7-0.89,2.04l-0.26,15.15c0,0.53-0.1,0.74-0.31,0.74c-0.26,0-0.55-0.26-0.82-0.53
		c-1.51-1.44-4.58-4.58-7.08-7.06c-2.62-2.59-5.28-5.59-5.71-6.05h-0.07L115.55,17.84z"/>
	<path d="M135.61,20.82c-0.38-0.17-0.46-0.29-0.46-0.82c0-1.32,0.1-2.76,0.12-3.14c0.02-0.36,0.1-0.62,0.29-0.62
		c0.22,0,0.24,0.22,0.24,0.41c0,0.31,0.1,0.82,0.22,1.22c0.53,1.78,1.94,2.42,3.43,2.42c2.16,0,3.22-1.46,3.22-2.74
		c0-1.18-0.36-2.3-2.35-3.84l-1.1-0.86c-2.64-2.06-3.55-3.74-3.55-5.69c0-2.64,2.21-4.54,5.54-4.54c1.56,0,2.57,0.24,3.19,0.41
		c0.22,0.05,0.34,0.12,0.34,0.29c0,0.31-0.1,1.01-0.1,2.88c0,0.53-0.07,0.72-0.26,0.72c-0.17,0-0.24-0.14-0.24-0.43
		c0-0.22-0.12-0.96-0.62-1.58c-0.36-0.46-1.06-1.18-2.62-1.18c-1.78,0-2.86,1.03-2.86,2.47c0,1.1,0.55,1.94,2.54,3.46l0.67,0.5
		c2.88,2.23,3.94,3.84,3.94,6.12c0,1.39-0.53,3.05-2.26,4.18c-1.2,0.77-2.54,0.98-3.82,0.98C137.72,21.44,136.64,21.27,135.61,20.82
		z"/>
	<path d="M153.83,10.98h0.12c0.82-0.89,4.32-4.46,5.02-5.28c0.67-0.79,1.2-1.39,1.2-1.8c0-0.26-0.1-0.43-0.34-0.48
		c-0.22-0.05-0.31-0.1-0.31-0.24c0-0.17,0.12-0.22,0.38-0.22c0.5,0,1.82,0.07,2.47,0.07c0.74,0,2.06-0.07,2.81-0.07
		c0.24,0,0.41,0.05,0.41,0.22s-0.12,0.22-0.36,0.22c-0.34,0-0.94,0.1-1.39,0.26c-0.74,0.29-1.56,0.79-2.59,1.8
		c-0.74,0.72-4.37,4.32-5.18,5.18c0.86,1.13,5.57,6.19,6.5,7.08c1.06,1.01,2.14,2.09,3.43,2.59c0.72,0.29,1.2,0.36,1.49,0.36
		c0.17,0,0.31,0.05,0.31,0.19c0,0.17-0.12,0.24-0.58,0.24h-2.09c-0.72,0-1.15,0-1.66-0.05c-1.29-0.12-1.94-0.65-2.98-1.56
		c-1.06-0.94-5.78-6.48-6.29-7.18l-0.26-0.36h-0.12v2.18c0,2.21,0,4.1,0.07,5.14c0.05,0.67,0.26,1.2,0.86,1.3
		c0.34,0.05,0.86,0.1,1.18,0.1c0.19,0,0.31,0.07,0.31,0.19c0,0.17-0.19,0.24-0.46,0.24c-1.34,0-2.86-0.07-3.46-0.07
		c-0.55,0-2.06,0.07-3.02,0.07c-0.31,0-0.48-0.07-0.48-0.24c0-0.12,0.1-0.19,0.38-0.19c0.36,0,0.65-0.05,0.86-0.1
		c0.48-0.1,0.6-0.62,0.7-1.32c0.12-1.01,0.12-2.9,0.12-5.11V9.92c0-3.65,0-4.32-0.05-5.09c-0.05-0.82-0.24-1.2-1.03-1.37
		c-0.19-0.05-0.6-0.07-0.94-0.07c-0.26,0-0.41-0.05-0.41-0.22s0.17-0.22,0.53-0.22c1.27,0,2.78,0.07,3.36,0.07s2.09-0.07,2.9-0.07
		c0.34,0,0.5,0.05,0.5,0.22s-0.14,0.22-0.34,0.22c-0.24,0-0.38,0.02-0.67,0.07c-0.65,0.12-0.84,0.53-0.89,1.37
		c-0.05,0.77-0.05,1.44-0.05,5.09V10.98z"/>
	<path d="M169.33,9.92c0-3.65,0-4.32-0.05-5.09c-0.05-0.82-0.24-1.2-1.03-1.37c-0.19-0.05-0.6-0.07-0.94-0.07
		c-0.26,0-0.41-0.05-0.41-0.22s0.17-0.22,0.53-0.22c1.27,0,2.78,0.07,3.46,0.07c0.77,0,5.54,0,6-0.02c0.46-0.05,0.84-0.1,1.03-0.14
		c0.12-0.02,0.26-0.1,0.38-0.1s0.14,0.1,0.14,0.22c0,0.17-0.12,0.46-0.19,1.56c-0.02,0.24-0.07,1.3-0.12,1.58
		c-0.02,0.12-0.07,0.26-0.24,0.26s-0.22-0.12-0.22-0.34c0-0.17-0.02-0.58-0.14-0.86c-0.17-0.43-0.41-0.72-1.61-0.86
		c-0.41-0.05-2.93-0.1-3.41-0.1c-0.12,0-0.17,0.07-0.17,0.24v6.07c0,0.17,0.02,0.26,0.17,0.26c0.53,0,3.29,0,3.84-0.05
		c0.58-0.05,0.94-0.12,1.15-0.36c0.17-0.19,0.26-0.31,0.38-0.31c0.1,0,0.17,0.05,0.17,0.19s-0.12,0.53-0.19,1.75
		c-0.05,0.48-0.1,1.44-0.1,1.61c0,0.19,0,0.46-0.22,0.46c-0.17,0-0.22-0.1-0.22-0.22c-0.02-0.24-0.02-0.55-0.1-0.86
		c-0.12-0.48-0.46-0.84-1.34-0.94c-0.46-0.05-2.83-0.07-3.41-0.07c-0.12,0-0.14,0.1-0.14,0.24v1.9c0,0.82-0.02,3.02,0,3.72
		c0.05,1.66,0.43,2.02,2.88,2.02c0.62,0,1.63,0,2.26-0.29c0.62-0.29,0.91-0.79,1.08-1.78c0.05-0.26,0.1-0.36,0.26-0.36
		c0.19,0,0.19,0.19,0.19,0.43c0,0.55-0.19,2.18-0.31,2.66c-0.17,0.62-0.38,0.62-1.3,0.62c-3.62,0-5.23-0.14-6.65-0.14
		c-0.55,0-2.06,0.07-3.02,0.07c-0.31,0-0.48-0.07-0.48-0.24c0-0.12,0.1-0.19,0.38-0.19c0.36,0,0.65-0.05,0.86-0.1
		c0.48-0.1,0.6-0.62,0.7-1.32c0.12-1.01,0.12-2.9,0.12-5.11V9.92z"/>
	<path class="st0" d="M189.56,5.31c-0.29-0.89-0.55-1.46-0.89-1.7c-0.26-0.17-0.74-0.22-0.96-0.22c-0.24,0-0.38-0.02-0.38-0.22
		c0-0.17,0.19-0.22,0.53-0.22c1.25,0,2.57,0.07,2.78,0.07c0.22,0,1.27-0.07,2.66-0.07c0.34,0,0.5,0.07,0.5,0.22
		c0,0.19-0.19,0.22-0.43,0.22c-0.19,0-0.43,0-0.6,0.1c-0.22,0.1-0.26,0.26-0.26,0.53c0,0.31,0.24,1.13,0.53,2.21
		c0.41,1.58,2.64,8.86,3.07,10.2h0.07l4.66-12.5c0.26-0.67,0.41-0.86,0.6-0.86c0.26,0,0.38,0.36,0.7,1.13l4.99,12.07h0.07
		c0.43-1.61,2.35-7.94,3.19-10.75c0.17-0.55,0.24-1.06,0.24-1.39c0-0.38-0.21-0.72-1.15-0.72c-0.24,0-0.41-0.07-0.41-0.22
		c0-0.17,0.19-0.22,0.55-0.22c1.27,0,2.28,0.07,2.5,0.07c0.17,0,1.2-0.07,1.99-0.07c0.26,0,0.43,0.05,0.43,0.19
		c0,0.17-0.12,0.24-0.34,0.24c-0.24,0-0.58,0.02-0.84,0.12c-0.58,0.22-0.84,1.18-1.34,2.54c-1.1,3.02-3.62,10.66-4.8,14.26
		c-0.26,0.84-0.38,1.13-0.7,1.13c-0.24,0-0.38-0.29-0.74-1.18L200.8,8.24h-0.05c-0.46,1.22-3.65,9.72-4.68,11.93
		c-0.46,0.98-0.58,1.27-0.87,1.27c-0.24,0-0.36-0.26-0.55-0.89L189.56,5.31z"/>
	<path d="M217.74,9.92c0-3.65,0-4.32-0.05-5.09c-0.05-0.82-0.24-1.2-1.03-1.37c-0.19-0.05-0.6-0.07-0.94-0.07
		c-0.26,0-0.41-0.05-0.41-0.22s0.17-0.22,0.53-0.22c1.27,0,2.78,0.07,3.46,0.07c0.77,0,5.54,0,6-0.02c0.46-0.05,0.84-0.1,1.03-0.14
		c0.12-0.02,0.26-0.1,0.38-0.1c0.12,0,0.14,0.1,0.14,0.22c0,0.17-0.12,0.46-0.19,1.56c-0.02,0.24-0.07,1.3-0.12,1.58
		c-0.02,0.12-0.07,0.26-0.24,0.26c-0.17,0-0.22-0.12-0.22-0.34c0-0.17-0.02-0.58-0.14-0.86c-0.17-0.43-0.41-0.72-1.61-0.86
		c-0.41-0.05-2.93-0.1-3.41-0.1c-0.12,0-0.17,0.07-0.17,0.24v6.07c0,0.17,0.02,0.26,0.17,0.26c0.53,0,3.29,0,3.84-0.05
		c0.58-0.05,0.94-0.12,1.15-0.36c0.17-0.19,0.26-0.31,0.38-0.31c0.1,0,0.17,0.05,0.17,0.19s-0.12,0.53-0.19,1.75
		c-0.05,0.48-0.1,1.44-0.1,1.61c0,0.19,0,0.46-0.22,0.46c-0.17,0-0.22-0.1-0.22-0.22c-0.02-0.24-0.02-0.55-0.1-0.86
		c-0.12-0.48-0.46-0.84-1.34-0.94c-0.46-0.05-2.83-0.07-3.41-0.07c-0.12,0-0.14,0.1-0.14,0.24v1.9c0,0.82-0.02,3.02,0,3.72
		c0.05,1.66,0.43,2.02,2.88,2.02c0.62,0,1.63,0,2.26-0.29c0.62-0.29,0.91-0.79,1.08-1.78c0.05-0.26,0.1-0.36,0.26-0.36
		c0.19,0,0.19,0.19,0.19,0.43c0,0.55-0.19,2.18-0.31,2.66c-0.17,0.62-0.38,0.62-1.3,0.62c-3.62,0-5.23-0.14-6.65-0.14
		c-0.55,0-2.06,0.07-3.03,0.07c-0.31,0-0.48-0.07-0.48-0.24c0-0.12,0.1-0.19,0.38-0.19c0.36,0,0.65-0.05,0.86-0.1
		c0.48-0.1,0.6-0.62,0.7-1.32c0.12-1.01,0.12-2.9,0.12-5.11V9.92z"/>
	<path d="M233.87,14.84c-0.12,0-0.17,0.05-0.22,0.19l-1.29,3.43c-0.24,0.6-0.36,1.18-0.36,1.46c0,0.43,0.22,0.74,0.96,0.74h0.36
		c0.29,0,0.36,0.05,0.36,0.19c0,0.19-0.14,0.24-0.41,0.24c-0.77,0-1.8-0.07-2.54-0.07c-0.26,0-1.58,0.07-2.83,0.07
		c-0.31,0-0.46-0.05-0.46-0.24c0-0.14,0.1-0.19,0.29-0.19c0.22,0,0.55-0.02,0.74-0.05c1.1-0.14,1.56-0.96,2.04-2.16l6.02-15.07
		c0.29-0.7,0.43-0.96,0.67-0.96c0.22,0,0.36,0.22,0.6,0.77c0.58,1.32,4.42,11.11,5.95,14.76c0.91,2.16,1.61,2.5,2.11,2.62
		c0.36,0.07,0.72,0.1,1.01,0.1c0.19,0,0.31,0.02,0.31,0.19c0,0.19-0.22,0.24-1.1,0.24c-0.86,0-2.62,0-4.54-0.05
		c-0.43-0.02-0.72-0.02-0.72-0.19c0-0.14,0.1-0.19,0.34-0.22c0.17-0.05,0.34-0.26,0.22-0.55l-1.92-5.09
		c-0.05-0.12-0.12-0.17-0.24-0.17H233.87z M238.76,13.64c0.12,0,0.14-0.07,0.12-0.14l-2.16-5.93c-0.02-0.1-0.05-0.22-0.12-0.22
		c-0.07,0-0.12,0.12-0.14,0.22l-2.21,5.9c-0.02,0.1,0,0.17,0.1,0.17H238.76z"/>
	<path d="M252.71,14.14c0,3.07,0,4.73,0.5,5.16c0.41,0.36,1.03,0.53,2.9,0.53c1.27,0,2.21-0.02,2.81-0.67
		c0.29-0.31,0.58-0.98,0.62-1.44c0.02-0.22,0.07-0.36,0.26-0.36c0.17,0,0.19,0.12,0.19,0.41c0,0.26-0.17,2.06-0.36,2.76
		c-0.14,0.53-0.26,0.65-1.51,0.65c-3.46,0-5.04-0.14-6.98-0.14c-0.55,0-2.06,0.07-3.02,0.07c-0.31,0-0.48-0.07-0.48-0.24
		c0-0.12,0.1-0.19,0.38-0.19c0.36,0,0.65-0.05,0.86-0.1c0.48-0.1,0.6-0.62,0.7-1.32c0.12-1.01,0.12-2.9,0.12-5.11V9.92
		c0-3.65,0-4.32-0.05-5.09c-0.05-0.82-0.24-1.2-1.03-1.37c-0.19-0.05-0.48-0.07-0.79-0.07c-0.26,0-0.41-0.05-0.41-0.22
		s0.17-0.22,0.53-0.22c1.13,0,2.64,0.07,3.29,0.07c0.58,0,2.33-0.07,3.26-0.07c0.34,0,0.5,0.05,0.5,0.22s-0.14,0.22-0.43,0.22
		c-0.26,0-0.65,0.02-0.94,0.07c-0.65,0.12-0.84,0.53-0.89,1.37c-0.05,0.77-0.05,1.44-0.05,5.09V14.14z"/>
	<path d="M266.27,4.3l-3.58,0.1c-1.39,0.05-1.97,0.17-2.33,0.7c-0.24,0.36-0.36,0.65-0.41,0.84c-0.05,0.19-0.12,0.29-0.26,0.29
		c-0.17,0-0.22-0.12-0.22-0.38c0-0.38,0.46-2.57,0.5-2.76c0.07-0.31,0.14-0.46,0.29-0.46c0.19,0,0.43,0.24,1.03,0.29
		c0.7,0.07,1.61,0.12,2.4,0.12h9.5c0.77,0,1.3-0.07,1.66-0.12c0.36-0.07,0.55-0.12,0.65-0.12c0.17,0,0.19,0.14,0.19,0.5
		c0,0.5-0.07,2.16-0.07,2.78c-0.02,0.24-0.07,0.38-0.21,0.38c-0.19,0-0.24-0.12-0.26-0.48l-0.03-0.26c-0.05-0.62-0.7-1.3-2.83-1.34
		l-3.02-0.07v9.84c0,2.21,0,4.1,0.12,5.14c0.07,0.67,0.22,1.2,0.94,1.3c0.34,0.05,0.87,0.1,1.22,0.1c0.26,0,0.38,0.07,0.38,0.19
		c0,0.17-0.19,0.24-0.46,0.24c-1.58,0-3.1-0.07-3.77-0.07c-0.55,0-2.06,0.07-3.02,0.07c-0.31,0-0.48-0.07-0.48-0.24
		c0-0.12,0.1-0.19,0.38-0.19c0.36,0,0.65-0.05,0.87-0.1c0.48-0.1,0.62-0.62,0.7-1.32c0.12-1.01,0.12-2.9,0.12-5.11V4.3z"/>
	<path d="M292.43,10.59c0.07,0,0.14-0.05,0.14-0.17v-0.5c0-3.65,0-4.32-0.05-5.09c-0.05-0.82-0.24-1.2-1.03-1.37
		c-0.19-0.05-0.6-0.07-0.94-0.07c-0.26,0-0.41-0.05-0.41-0.22s0.17-0.22,0.51-0.22c1.29,0,2.81,0.07,3.46,0.07
		c0.58,0,2.09-0.07,3.03-0.07c0.34,0,0.5,0.05,0.5,0.22s-0.14,0.22-0.43,0.22c-0.19,0-0.41,0.02-0.7,0.07
		c-0.65,0.12-0.84,0.53-0.89,1.37c-0.05,0.77-0.05,1.44-0.05,5.09v4.22c0,2.21,0,4.1,0.12,5.14c0.07,0.67,0.22,1.2,0.94,1.3
		c0.34,0.05,0.86,0.1,1.22,0.1c0.26,0,0.38,0.07,0.38,0.19c0,0.17-0.19,0.24-0.48,0.24c-1.56,0-3.07-0.07-3.74-0.07
		c-0.55,0-2.06,0.07-3,0.07c-0.34,0-0.5-0.07-0.5-0.24c0-0.12,0.1-0.19,0.38-0.19c0.36,0,0.65-0.05,0.87-0.1
		c0.48-0.1,0.6-0.62,0.7-1.32c0.12-1.01,0.12-2.9,0.12-5.11v-2.11c0-0.1-0.07-0.14-0.14-0.14h-9.17c-0.07,0-0.14,0.02-0.14,0.14
		v2.11c0,2.21,0,4.1,0.12,5.14c0.07,0.67,0.22,1.2,0.94,1.3c0.34,0.05,0.86,0.1,1.22,0.1c0.26,0,0.38,0.07,0.38,0.19
		c0,0.17-0.19,0.24-0.48,0.24c-1.56,0-3.07-0.07-3.74-0.07c-0.55,0-2.06,0.07-3.02,0.07c-0.31,0-0.48-0.07-0.48-0.24
		c0-0.12,0.1-0.19,0.38-0.19c0.36,0,0.65-0.05,0.87-0.1c0.48-0.1,0.6-0.62,0.7-1.32c0.12-1.01,0.12-2.9,0.12-5.11V9.92
		c0-3.65,0-4.32-0.05-5.09c-0.05-0.82-0.24-1.2-1.03-1.37c-0.19-0.05-0.6-0.07-0.94-0.07c-0.26,0-0.41-0.05-0.41-0.22
		s0.17-0.22,0.51-0.22c1.3,0,2.81,0.07,3.46,0.07c0.58,0,2.09-0.07,3.03-0.07c0.34,0,0.5,0.05,0.5,0.22s-0.14,0.22-0.43,0.22
		c-0.19,0-0.41,0.02-0.7,0.07c-0.65,0.12-0.84,0.53-0.89,1.37c-0.05,0.77-0.05,1.44-0.05,5.09v0.5c0,0.12,0.07,0.17,0.14,0.17
		H292.43z"/>
	<path d="M73.03,31.85c0.07-0.41,0.22-0.62,0.41-0.62s0.34,0.12,0.65,0.74l6.55,13.54l6.53-13.71c0.17-0.38,0.31-0.58,0.53-0.58
		c0.22,0,0.36,0.24,0.43,0.74l2.18,14.83c0.22,1.51,0.46,2.21,1.18,2.42c0.7,0.22,1.18,0.24,1.49,0.24c0.22,0,0.38,0.02,0.38,0.17
		c0,0.19-0.29,0.26-0.62,0.26c-0.6,0-3.91-0.07-4.87-0.14c-0.55-0.05-0.7-0.12-0.7-0.26c0-0.12,0.1-0.19,0.26-0.26
		c0.14-0.05,0.22-0.36,0.12-1.03l-1.44-10.56h-0.1l-5.23,10.9c-0.55,1.13-0.67,1.34-0.89,1.34c-0.22,0-0.46-0.48-0.84-1.2
		c-0.58-1.1-2.47-4.78-2.76-5.45c-0.22-0.5-1.66-3.53-2.5-5.33h-0.1l-1.25,9.55c-0.05,0.43-0.07,0.74-0.07,1.13
		c0,0.46,0.31,0.67,0.72,0.77c0.43,0.1,0.77,0.12,1.01,0.12c0.19,0,0.36,0.05,0.36,0.17c0,0.22-0.22,0.26-0.58,0.26
		c-1.01,0-2.09-0.07-2.52-0.07c-0.46,0-1.61,0.07-2.38,0.07c-0.24,0-0.43-0.05-0.43-0.26c0-0.12,0.14-0.17,0.38-0.17
		c0.19,0,0.36,0,0.72-0.07c0.67-0.14,0.86-1.08,0.98-1.9L73.03,31.85z"/>
	<path d="M98.36,43.64c-0.12,0-0.17,0.05-0.22,0.19l-1.3,3.43c-0.24,0.6-0.36,1.18-0.36,1.46c0,0.43,0.22,0.74,0.96,0.74h0.36
		c0.29,0,0.36,0.05,0.36,0.19c0,0.19-0.14,0.24-0.41,0.24c-0.77,0-1.8-0.07-2.54-0.07c-0.26,0-1.58,0.07-2.83,0.07
		c-0.31,0-0.46-0.05-0.46-0.24c0-0.14,0.1-0.19,0.29-0.19c0.22,0,0.55-0.02,0.74-0.05c1.1-0.14,1.56-0.96,2.04-2.16l6.02-15.07
		c0.29-0.7,0.43-0.96,0.67-0.96c0.22,0,0.36,0.21,0.6,0.77c0.58,1.32,4.42,11.11,5.95,14.76c0.91,2.16,1.61,2.5,2.11,2.62
		c0.36,0.07,0.72,0.1,1.01,0.1c0.19,0,0.31,0.02,0.31,0.19c0,0.19-0.22,0.24-1.1,0.24c-0.86,0-2.62,0-4.54-0.05
		c-0.43-0.02-0.72-0.02-0.72-0.19c0-0.14,0.1-0.19,0.34-0.22c0.17-0.05,0.34-0.26,0.22-0.55l-1.92-5.09
		c-0.05-0.12-0.12-0.17-0.24-0.17H98.36z M103.26,42.44c0.12,0,0.14-0.07,0.12-0.14l-2.16-5.93c-0.02-0.1-0.05-0.22-0.12-0.22
		c-0.07,0-0.12,0.12-0.14,0.22l-2.21,5.91c-0.02,0.1,0,0.17,0.1,0.17H103.26z"/>
	<path d="M115.55,46.64c0.05,1.87,0.36,2.5,0.84,2.67c0.41,0.14,0.86,0.17,1.25,0.17c0.26,0,0.41,0.05,0.41,0.19
		c0,0.19-0.22,0.24-0.55,0.24c-1.56,0-2.52-0.07-2.98-0.07c-0.22,0-1.34,0.07-2.59,0.07c-0.31,0-0.53-0.02-0.53-0.24
		c0-0.14,0.14-0.19,0.38-0.19c0.31,0,0.74-0.02,1.08-0.12c0.62-0.19,0.72-0.89,0.74-2.98l0.22-14.21c0-0.48,0.07-0.82,0.31-0.82
		c0.26,0,0.48,0.31,0.89,0.74c0.29,0.31,3.94,4.22,7.44,7.71c1.63,1.63,4.87,5.09,5.28,5.47h0.12l-0.24-10.78
		c-0.02-1.46-0.24-1.92-0.82-2.16c-0.36-0.14-0.94-0.14-1.27-0.14c-0.29,0-0.38-0.07-0.38-0.21c0-0.19,0.26-0.22,0.62-0.22
		c1.25,0,2.4,0.07,2.9,0.07c0.26,0,1.18-0.07,2.35-0.07c0.31,0,0.55,0.02,0.55,0.22c0,0.14-0.14,0.21-0.43,0.21
		c-0.24,0-0.43,0-0.72,0.07c-0.67,0.19-0.86,0.7-0.89,2.04l-0.26,15.14c0,0.53-0.1,0.74-0.31,0.74c-0.26,0-0.55-0.26-0.82-0.53
		c-1.51-1.44-4.58-4.58-7.08-7.06c-2.62-2.59-5.28-5.59-5.71-6.05h-0.07L115.55,46.64z"/>
	<path d="M137.89,43.64c-0.12,0-0.17,0.05-0.22,0.19l-1.3,3.43c-0.24,0.6-0.36,1.18-0.36,1.46c0,0.43,0.22,0.74,0.96,0.74h0.36
		c0.29,0,0.36,0.05,0.36,0.19c0,0.19-0.14,0.24-0.41,0.24c-0.77,0-1.8-0.07-2.54-0.07c-0.26,0-1.58,0.07-2.83,0.07
		c-0.31,0-0.46-0.05-0.46-0.24c0-0.14,0.1-0.19,0.29-0.19c0.22,0,0.55-0.02,0.74-0.05c1.1-0.14,1.56-0.96,2.04-2.16l6.02-15.07
		c0.29-0.7,0.43-0.96,0.67-0.96c0.22,0,0.36,0.21,0.6,0.77c0.58,1.32,4.42,11.11,5.95,14.76c0.91,2.16,1.61,2.5,2.11,2.62
		c0.36,0.07,0.72,0.1,1.01,0.1c0.19,0,0.31,0.02,0.31,0.19c0,0.19-0.22,0.24-1.1,0.24c-0.86,0-2.62,0-4.54-0.05
		c-0.43-0.02-0.72-0.02-0.72-0.19c0-0.14,0.1-0.19,0.34-0.22c0.17-0.05,0.34-0.26,0.22-0.55l-1.92-5.09
		c-0.05-0.12-0.12-0.17-0.24-0.17H137.89z M142.79,42.44c0.12,0,0.14-0.07,0.12-0.14l-2.16-5.93c-0.02-0.1-0.05-0.22-0.12-0.22
		c-0.07,0-0.12,0.12-0.14,0.22l-2.21,5.91c-0.02,0.1,0,0.17,0.1,0.17H142.79z"/>
	<path d="M168.3,48.29c0,0.65-0.02,0.7-0.31,0.87c-1.56,0.82-3.91,1.08-5.79,1.08c-5.88,0-11.09-2.79-11.09-9.41
		c0-3.84,1.99-6.53,4.18-7.85c2.3-1.39,4.44-1.56,6.46-1.56c1.66,0,3.77,0.29,4.25,0.38c0.5,0.1,1.34,0.24,1.9,0.26
		c0.29,0.02,0.34,0.12,0.34,0.29c0,0.26-0.17,0.94-0.17,3.94c0,0.38-0.07,0.5-0.26,0.5c-0.17,0-0.22-0.12-0.24-0.31
		c-0.07-0.55-0.19-1.32-0.82-1.99c-0.72-0.77-2.64-1.87-5.35-1.87c-1.32,0-3.07,0.1-4.75,1.49c-1.34,1.13-2.21,2.93-2.21,5.88
		c0,5.16,3.29,9.03,8.35,9.03c0.62,0,1.46,0,2.04-0.26c0.36-0.17,0.46-0.48,0.46-0.89v-2.26c0-1.2,0-2.11-0.02-2.83
		c-0.02-0.82-0.24-1.2-1.03-1.37c-0.19-0.05-0.6-0.07-0.94-0.07c-0.22,0-0.36-0.05-0.36-0.19c0-0.19,0.17-0.24,0.5-0.24
		c1.25,0,2.76,0.07,3.48,0.07c0.74,0,2.02-0.07,2.81-0.07c0.31,0,0.48,0.05,0.48,0.24c0,0.14-0.14,0.19-0.31,0.19
		c-0.19,0-0.36,0.02-0.65,0.07c-0.65,0.12-0.89,0.53-0.91,1.37c-0.02,0.72-0.02,1.68-0.02,2.88V48.29z"/>
	<path d="M175,38.72c0-3.65,0-4.32-0.05-5.09c-0.05-0.82-0.24-1.2-1.03-1.37c-0.19-0.05-0.6-0.07-0.94-0.07
		c-0.26,0-0.41-0.05-0.41-0.21c0-0.17,0.17-0.22,0.53-0.22c1.27,0,2.79,0.07,3.46,0.07c0.77,0,5.54,0,6-0.02
		c0.46-0.05,0.84-0.1,1.03-0.14c0.12-0.02,0.26-0.1,0.38-0.1c0.12,0,0.14,0.1,0.14,0.22c0,0.17-0.12,0.46-0.19,1.56
		c-0.02,0.24-0.07,1.3-0.12,1.58c-0.02,0.12-0.07,0.26-0.24,0.26c-0.17,0-0.21-0.12-0.21-0.34c0-0.17-0.02-0.58-0.14-0.86
		c-0.17-0.43-0.41-0.72-1.61-0.86c-0.41-0.05-2.93-0.1-3.41-0.1c-0.12,0-0.17,0.07-0.17,0.24v6.07c0,0.17,0.02,0.26,0.17,0.26
		c0.53,0,3.29,0,3.84-0.05c0.58-0.05,0.94-0.12,1.15-0.36c0.17-0.19,0.26-0.31,0.38-0.31c0.1,0,0.17,0.05,0.17,0.19
		c0,0.14-0.12,0.53-0.19,1.75c-0.05,0.48-0.1,1.44-0.1,1.61c0,0.19,0,0.46-0.22,0.46c-0.17,0-0.21-0.1-0.21-0.22
		c-0.02-0.24-0.02-0.55-0.1-0.86c-0.12-0.48-0.46-0.84-1.34-0.94c-0.46-0.05-2.83-0.07-3.41-0.07c-0.12,0-0.14,0.1-0.14,0.24v1.9
		c0,0.82-0.02,3.02,0,3.72c0.05,1.66,0.43,2.02,2.88,2.02c0.62,0,1.63,0,2.26-0.29c0.62-0.29,0.91-0.79,1.08-1.78
		c0.05-0.26,0.1-0.36,0.26-0.36c0.19,0,0.19,0.19,0.19,0.43c0,0.55-0.19,2.18-0.31,2.66c-0.17,0.62-0.38,0.62-1.3,0.62
		c-3.62,0-5.23-0.14-6.65-0.14c-0.55,0-2.06,0.07-3.02,0.07c-0.31,0-0.48-0.07-0.48-0.24c0-0.12,0.1-0.19,0.38-0.19
		c0.36,0,0.65-0.05,0.86-0.1c0.48-0.1,0.6-0.62,0.7-1.32c0.12-1.01,0.12-2.9,0.12-5.11V38.72z"/>
	<path d="M191.05,31.85c0.07-0.41,0.22-0.62,0.41-0.62c0.19,0,0.34,0.12,0.65,0.74l6.55,13.54l6.53-13.71
		c0.17-0.38,0.31-0.58,0.53-0.58c0.22,0,0.36,0.24,0.43,0.74l2.18,14.83c0.21,1.51,0.46,2.21,1.18,2.42
		c0.7,0.22,1.18,0.24,1.49,0.24c0.22,0,0.38,0.02,0.38,0.17c0,0.19-0.29,0.26-0.62,0.26c-0.6,0-3.91-0.07-4.87-0.14
		c-0.55-0.05-0.7-0.12-0.7-0.26c0-0.12,0.1-0.19,0.26-0.26c0.14-0.05,0.22-0.36,0.12-1.03l-1.44-10.56h-0.1l-5.23,10.9
		c-0.55,1.13-0.67,1.34-0.89,1.34c-0.21,0-0.46-0.48-0.84-1.2c-0.58-1.1-2.47-4.78-2.76-5.45c-0.22-0.5-1.66-3.53-2.5-5.33h-0.1
		l-1.25,9.55c-0.05,0.43-0.07,0.74-0.07,1.13c0,0.46,0.31,0.67,0.72,0.77c0.43,0.1,0.77,0.12,1.01,0.12c0.19,0,0.36,0.05,0.36,0.17
		c0,0.22-0.22,0.26-0.58,0.26c-1.01,0-2.09-0.07-2.52-0.07c-0.46,0-1.61,0.07-2.38,0.07c-0.24,0-0.43-0.05-0.43-0.26
		c0-0.12,0.14-0.17,0.38-0.17c0.19,0,0.36,0,0.72-0.07c0.67-0.14,0.86-1.08,0.98-1.9L191.05,31.85z"/>
	<path d="M215.2,38.72c0-3.65,0-4.32-0.05-5.09c-0.05-0.82-0.24-1.2-1.03-1.37c-0.19-0.05-0.6-0.07-0.94-0.07
		c-0.26,0-0.41-0.05-0.41-0.21c0-0.17,0.17-0.22,0.53-0.22c1.27,0,2.79,0.07,3.46,0.07c0.77,0,5.54,0,6-0.02
		c0.46-0.05,0.84-0.1,1.03-0.14c0.12-0.02,0.26-0.1,0.38-0.1c0.12,0,0.14,0.1,0.14,0.22c0,0.17-0.12,0.46-0.19,1.56
		c-0.02,0.24-0.07,1.3-0.12,1.58c-0.02,0.12-0.07,0.26-0.24,0.26s-0.21-0.12-0.21-0.34c0-0.17-0.02-0.58-0.14-0.86
		c-0.17-0.43-0.41-0.72-1.61-0.86c-0.41-0.05-2.93-0.1-3.41-0.1c-0.12,0-0.17,0.07-0.17,0.24v6.07c0,0.17,0.02,0.26,0.17,0.26
		c0.53,0,3.29,0,3.84-0.05c0.58-0.05,0.94-0.12,1.15-0.36c0.17-0.19,0.26-0.31,0.38-0.31c0.1,0,0.17,0.05,0.17,0.19
		c0,0.14-0.12,0.53-0.19,1.75c-0.05,0.48-0.1,1.44-0.1,1.61c0,0.19,0,0.46-0.22,0.46c-0.17,0-0.21-0.1-0.21-0.22
		c-0.02-0.24-0.02-0.55-0.1-0.86c-0.12-0.48-0.46-0.84-1.34-0.94c-0.46-0.05-2.83-0.07-3.41-0.07c-0.12,0-0.14,0.1-0.14,0.24v1.9
		c0,0.82-0.02,3.02,0,3.72c0.05,1.66,0.43,2.02,2.88,2.02c0.62,0,1.63,0,2.26-0.29c0.62-0.29,0.91-0.79,1.08-1.78
		c0.05-0.26,0.1-0.36,0.26-0.36c0.19,0,0.19,0.19,0.19,0.43c0,0.55-0.19,2.18-0.31,2.66c-0.17,0.62-0.38,0.62-1.3,0.62
		c-3.62,0-5.23-0.14-6.65-0.14c-0.55,0-2.06,0.07-3.02,0.07c-0.31,0-0.48-0.07-0.48-0.24c0-0.12,0.1-0.19,0.38-0.19
		c0.36,0,0.65-0.05,0.86-0.1c0.48-0.1,0.6-0.62,0.7-1.32c0.12-1.01,0.12-2.9,0.12-5.11V38.72z"/>
	<path d="M231.71,46.64c0.05,1.87,0.36,2.5,0.84,2.67c0.41,0.14,0.86,0.17,1.25,0.17c0.26,0,0.41,0.05,0.41,0.19
		c0,0.19-0.22,0.24-0.55,0.24c-1.56,0-2.52-0.07-2.98-0.07c-0.22,0-1.34,0.07-2.59,0.07c-0.31,0-0.53-0.02-0.53-0.24
		c0-0.14,0.14-0.19,0.38-0.19c0.31,0,0.74-0.02,1.08-0.12c0.62-0.19,0.72-0.89,0.74-2.98l0.22-14.21c0-0.48,0.07-0.82,0.31-0.82
		c0.26,0,0.48,0.31,0.89,0.74c0.29,0.31,3.94,4.22,7.44,7.71c1.63,1.63,4.87,5.09,5.28,5.47h0.12l-0.24-10.78
		c-0.02-1.46-0.24-1.92-0.82-2.16c-0.36-0.14-0.94-0.14-1.27-0.14c-0.29,0-0.38-0.07-0.38-0.21c0-0.19,0.26-0.22,0.62-0.22
		c1.25,0,2.4,0.07,2.9,0.07c0.26,0,1.18-0.07,2.35-0.07c0.31,0,0.55,0.02,0.55,0.22c0,0.14-0.14,0.21-0.43,0.21
		c-0.24,0-0.43,0-0.72,0.07c-0.67,0.19-0.86,0.7-0.89,2.04l-0.26,15.14c0,0.53-0.1,0.74-0.31,0.74c-0.26,0-0.55-0.26-0.82-0.53
		c-1.51-1.44-4.58-4.58-7.08-7.06c-2.62-2.59-5.28-5.59-5.71-6.05h-0.07L231.71,46.64z"/>
	<path d="M256.28,33.1l-3.58,0.1c-1.39,0.05-1.97,0.17-2.33,0.7c-0.24,0.36-0.36,0.65-0.41,0.84c-0.05,0.19-0.12,0.29-0.26,0.29
		c-0.17,0-0.22-0.12-0.22-0.38c0-0.38,0.46-2.57,0.5-2.76c0.07-0.31,0.14-0.46,0.29-0.46c0.19,0,0.43,0.24,1.03,0.29
		c0.7,0.07,1.61,0.12,2.4,0.12h9.51c0.77,0,1.29-0.07,1.66-0.12c0.36-0.07,0.55-0.12,0.65-0.12c0.17,0,0.19,0.14,0.19,0.5
		c0,0.5-0.07,2.16-0.07,2.79c-0.02,0.24-0.07,0.38-0.22,0.38c-0.19,0-0.24-0.12-0.26-0.48l-0.02-0.26c-0.05-0.62-0.7-1.3-2.83-1.34
		l-3.03-0.07v9.84c0,2.21,0,4.1,0.12,5.14c0.07,0.67,0.21,1.2,0.94,1.29c0.34,0.05,0.86,0.1,1.22,0.1c0.26,0,0.38,0.07,0.38,0.19
		c0,0.17-0.19,0.24-0.46,0.24c-1.58,0-3.1-0.07-3.77-0.07c-0.55,0-2.06,0.07-3.02,0.07c-0.31,0-0.48-0.07-0.48-0.24
		c0-0.12,0.1-0.19,0.38-0.19c0.36,0,0.65-0.05,0.86-0.1c0.48-0.1,0.62-0.62,0.7-1.32c0.12-1.01,0.12-2.9,0.12-5.11V33.1z"/>
</g>
<g>
	<path class="st0" d="M30.46,14.25L19.61,32L0,0h9.58l10.07,16.64L28.18,0h4.53l8.67,16.64L51.67,0h9.35L41.45,32.05L30.46,14.25z"
		/>
</g>
<g>
	<path d="M34.28,52.96h-7.61v-19.5l-6.86,11.29h-0.6l-6.88-11.29v19.49H4.93V19.3h6.9l7.76,12.62l10.92-17.86l3.77,9.38V52.96z"/>
</g>
<g>
	<path d="M56.12,52.95h-7.61V33.46l-6.86,11.29h-0.6l-6.88-11.29v19.5h-7.39v-29.5l3.74-9.38l10.91,17.86l7.79-12.62h6.9V52.95z"/>
</g>
<polyline class="st1" points="19.12,32.72 30.52,14.11 41.96,32.87 "/>
<g>
	<rect x="17.04" y="27.97" transform="matrix(0.8495 -0.5276 0.5276 0.8495 -13.9809 14.3328)" width="2.17" height="7.39"/>
</g>
<g>
	<rect x="39.33" y="30.3" transform="matrix(0.5276 -0.8495 0.8495 0.5276 -6.3355 51.3755)" width="7.39" height="2.17"/>
</g>
</svg>
