<?xml version="1.0" encoding="UTF-8"?>
<svg id="a" data-name="outlined" xmlns="http://www.w3.org/2000/svg" viewBox="0 0 180.39 40.86842">
  <path d="m176.73,12.46c1.97,0,3.66-1.53,3.66-3.63,0-2.08-1.69-3.61-3.66-3.61-1.99001,0-3.67,1.53-3.67,3.61-.00999,2.1,1.68001,3.63,3.67,3.63m-2.95-3.63c0-1.71,1.3-3.01,2.95-3.01,1.64,0,2.92999,1.29,2.92999,3.01,0,1.74-1.28999,3.03-2.92999,3.03-1.65999,0-2.95-1.28-2.95-3.03m2.18001.29h.73l1.10001,1.81h.71001l-1.19-1.84c.61-.08,1.08-.4,1.08-1.15,0-.82-.49001-1.19-1.47-1.19h-1.59v4.18h.64v-1.81h-.01001Zm0-.54v-1.29h.86c.44,0,.91.1.91.61,0,.64-.48.68-1.00999.68h-.76001Z" style="fill: #fff; fill-rule: evenodd;"/>
  <path d="m53.17,40.72V11.62h12.62v20.72c-.38,8.71-9.33,8.38-9.33,8.38h-3.29Z" style="fill: #fff;"/>
  <path d="m50.45,40.72V11.62h-12.61v20.72c.4,8.71,9.35,8.38,9.35,8.38h3.26Z" style="fill: #fff;"/>
  <rect x="68.4" y="11.61" width="12.61" height="29.1" style="fill: #fff;"/>
  <path d="m158.64999,17.75c0-3.31,2.69-5.99,6.02-5.99,3.32001,0,6.02,2.68,6.02,5.99s-2.7,5.99-6.02,5.99c-3.33,0-6.02-2.68-6.02-5.99" style="fill: #fff;"/>
  <rect x="145.07001" y="11.61" width="12.50999" height="29.1" style="fill: #fff;"/>
  <polygon points="99.49 40.72 99.49 15.04 95.01 15.04 111.7 .05 111.7 11.93 116.75 11.93 116.75 15.04 111.7 15.04 111.7 40.72 99.49 40.72" style="fill: #fff;"/>
  <path d="m83.68,11.61v29.1h12.85v-20.62c-.4-8.71-9.43-8.48-9.43-8.48h-3.42Z" style="fill: #fff;"/>
  <path d="m128.07001,40.85c-7.74,0-14.21-6.64-14.21-14.78s5.99-14.45,13.9-14.85v26.2c3.12.31,10.28-.74,15.39999-6.07v3.59c-2.13,2.55-7.25,6.22-15.09,5.91" style="fill: #fff;"/>
  <path d="m129.84,11.21v15.02h13.42999c.30002-7.35-3.28999-14.78-13.42999-15.02" style="fill: #fff;"/>
  <polygon points="15.75 16.62 19.28 16.62 19.28 0 35.04 0 35.04 40.72 19.28 40.72 19.28 20.67 15.76 20.67 15.76 40.72 0 40.72 0 0 15.76 0 15.75 16.62" style="fill: #fff;"/>
</svg>