<?xml version="1.0" encoding="iso-8859-1"?>
<!-- Uploaded to: SVG Repo, www.svgrepo.com, Generator: SVG Repo Mixer Tools -->
<svg fill="#000000" height="800px" width="800px" version="1.1" id="Layer_1" xmlns="http://www.w3.org/2000/svg" xmlns:xlink="http://www.w3.org/1999/xlink" 
	 viewBox="0 0 490.667 490.667" xml:space="preserve">
<g>
	<g>
		<g>
			<path d="M458.667,5.333H32c-17.707,0-32,14.293-32,32v416c0,17.707,14.293,32,32,32h426.667c17.707,0,32-14.293,32-32v-416
				C490.667,19.627,476.373,5.333,458.667,5.333z M469.333,453.333c0,5.867-4.8,10.667-10.667,10.667H32
				c-5.867,0-10.667-4.8-10.667-10.667v-416c0-5.867,4.8-10.667,10.667-10.667h426.667c5.867,0,10.667,4.8,10.667,10.667V453.333z"
				/>
			<path d="M117.333,85.44c0-20.587-16.747-37.333-37.333-37.333S42.667,64.853,42.667,85.44S59.413,122.773,80,122.773
				C100.587,122.667,117.333,106.027,117.333,85.44z M64,85.44c0-8.853,7.147-16,16-16s16,7.147,16,16s-7.147,16-16,16
				S64,94.293,64,85.44z"/>
			<path d="M410.667,48c-20.587,0-37.333,16.747-37.333,37.333s16.747,37.333,37.333,37.333c20.587,0,37.333-16.747,37.333-37.333
				S431.253,48.107,410.667,48z M410.667,101.333c-9.067,0-16.427-7.573-16-16.747c0.427-8.107,7.04-14.827,15.253-15.253
				c9.173-0.427,16.747,6.933,16.747,16C426.667,94.08,419.52,101.333,410.667,101.333z"/>
			<path d="M394.667,176H96c-17.707,0-32,14.293-32,32v192c0,17.707,14.293,32,32,32h298.667c17.707,0,32-14.293,32-32V208
				C426.667,190.293,412.373,176,394.667,176z M405.333,400c0,5.867-4.8,10.667-10.667,10.667H96c-5.867,0-10.667-4.8-10.667-10.667
				V208c0-5.867,4.8-10.667,10.667-10.667h298.667c5.867,0,10.667,4.8,10.667,10.667V400z"/>
			<path d="M170.667,122.667H320c5.867,0,10.667-4.8,10.667-10.667c0-5.867-4.8-10.667-10.667-10.667H170.667
				c-5.867,0-10.667,4.8-10.667,10.667C160,117.867,164.8,122.667,170.667,122.667z"/>
			<path d="M221.973,259.627c4.693-3.52,5.653-10.24,2.027-14.933c-3.413-4.587-9.813-5.547-14.507-2.347
				c-10.773,7.68-25.173,31.573-2.88,67.307c5.44,8.747,7.253,16.533,5.44,22.933c-2.773,9.6-13.12,14.72-13.12,14.72
				c-5.333,2.453-7.68,8.853-5.227,14.187s8.853,7.68,14.187,5.227c1.92-0.853,18.987-9.28,24.533-27.84
				c3.733-12.587,1.173-26.24-7.68-40.533C208.213,271.787,220.373,260.8,221.973,259.627z"/>
			<path d="M285.867,259.733c4.693-3.52,5.76-10.133,2.24-14.933c-3.52-4.693-10.133-5.76-14.933-2.24
				c-10.453,7.573-24.64,31.36-2.88,66.987c5.333,8.853,7.147,16.533,5.227,23.04c-2.773,9.493-12.693,14.507-12.693,14.507
				c-5.333,2.56-7.467,8.96-4.907,14.293c1.813,3.627,5.44,5.973,9.493,5.973c1.6,0,3.093-0.427,4.587-1.067
				c1.92-0.853,18.453-9.173,24-27.52c3.733-12.587,1.28-26.24-7.467-40.533C272.427,272,284.373,261.013,285.867,259.733z"/>
		</g>
	</g>
</g>
</svg>