<?xml version="1.0" encoding="iso-8859-1"?>
<!-- Uploaded to: SVG Repo, www.svgrepo.com, Generator: SVG Repo Mixer Tools -->
<svg fill="#000000" height="800px" width="800px" version="1.1" id="Layer_1" xmlns="http://www.w3.org/2000/svg" xmlns:xlink="http://www.w3.org/1999/xlink" 
	 viewBox="0 0 512 512" xml:space="preserve">
<g>
	<g>
		<path d="M381.664,0H130.336C109.8,0,93.091,16.7,93.091,37.218v353.764v93.009c0,15.446,12.536,28.009,27.945,28.009h269.927
			c15.409,0,27.945-12.564,27.945-28.009v-93.009V37.218C418.909,16.7,402.2,0,381.664,0z M400.291,483.991
			c0,5.182-4.182,9.391-9.327,9.391H121.036c-5.145,0-9.327-4.209-9.327-9.391v-83.7h288.582V483.991z M400.291,381.673H111.709
			V37.218c0-10.255,8.354-18.6,18.627-18.6h251.327c10.273,0,18.627,8.345,18.627,18.6V381.673z"/>
	</g>
</g>
<g>
	<g>
		<path d="M260.655,418.909c-15.4,0-27.927,12.527-27.927,27.927s12.527,27.927,27.927,27.927s27.927-12.527,27.927-27.927
			S276.055,418.909,260.655,418.909z M260.655,456.145c-5.136,0-9.309-4.173-9.309-9.309s4.173-9.309,9.309-9.309
			s9.309,4.173,9.309,9.309S265.791,456.145,260.655,456.145z"/>
	</g>
</g>
<g>
	<g>
		<path d="M260.655,288.582c-30.8,0-55.855,25.054-55.855,55.854c0,5.145,4.164,9.309,9.309,9.309H307.2
			c5.145,0,9.309-4.164,9.309-9.309C316.509,313.636,291.455,288.582,260.655,288.582z M224.6,335.127
			c4.136-16.045,18.736-27.927,36.055-27.927s31.918,11.882,36.055,27.927H224.6z"/>
	</g>
</g>
</svg>